<svg><metadata>Created by FontForge 20090914 at Fri Feb 24 00:59:47 2012 By root Alba Â©2001, Fontâ¢aâ¢licious Fonts.</metadata><defs><font id="Alba" horiz-adv-x="565"><font-face x-height="500" ascent="800" bbox="-139 -542 1348 1040.17" cap-height="705" descent="-200" font-family="Alba" font-stretch="normal" font-weight="400" panose-1="0 0 4 0 0 0 0 0 0 0" underline-position="-123" underline-thickness="20" unicode-range="U+0020-U+F002" units-per-em="1000"/><glyph d="M63 0v1030h375v-1030h-375zM125 63h250v905h-250v-905z" glyph-name=".notdef" horiz-adv-x="500"/><glyph glyph-name=".null" horiz-adv-x="0"/><glyph glyph-name="nonmarkingreturn" horiz-adv-x="303"/><glyph glyph-name="space" horiz-adv-x="303"/><glyph d="M53 638q0 29 19 48t48 19q30 0 49 -18.5t19 -48.5v-357q0 -30 -19 -49t-49 -19t-48.5 19t-18.5 49v357zM121 0q35 0 59 24t24 59q0 34 -24.5 58t-58.5 24t-58.5 -24t-24.5 -58q0 -35 24 -59t59 -24z" glyph-name="exclam" horiz-adv-x="190" unicode="!"/><glyph d="M204 622q0 34 -24.5 58.5t-58.5 24.5t-58.5 -24.5t-24.5 -58.5v-123q0 -34 24.5 -58t58.5 -24t58.5 24t24.5 58v123zM414 622q0 35 -24 59t-59 24q-34 0 -58 -24.5t-24 -58.5v-123q0 -34 24 -58t58 -24q35 0 59 23.5t24 58.5v123z" glyph-name="quotedbl" horiz-adv-x="415" unicode="&quot;"/><glyph d="M327 433v61h-61v-61h61zM327 289v9h-61v-9q0 -30 -18.5 -49t-48.5 -19t-49 19t-19 49v9h-9q-30 0 -48.5 19t-18.5 49t18.5 48.5t48.5 18.5h9v61h-9q-30 0 -48.5 18.5t-18.5 48.5t18.5 49t48.5 19h9v9q0 30 19 48.5t49 18.5t48.5 -18.5t18.5 -48.5v-9h61v9q0 30 18.5 48.5 t48.5 18.5t49 -18.5t19 -48.5v-9h9q30 0 48.5 -19t18.5 -49t-18.5 -48.5t-48.5 -18.5h-9v-61h9q30 0 48.5 -18.5t18.5 -48.5q0 -68 -67 -68h-9v-9q0 -30 -19 -49t-49 -19t-48.5 19t-18.5 49z" glyph-name="numbersign" horiz-adv-x="539" unicode="#"/><glyph d="M318 404l-1 -116q-1 -82 -57.5 -139t-138.5 -57q-30 0 -48.5 18.5t-18.5 48.5t18.5 49t48.5 19q26 0 43.5 17.5t17.5 43.5v20q1 40 1 41v55q0 83 56.5 139.5t139.5 56.5q30 0 49 -18.5t19 -48.5q0 -29 -18 -47t-47.5 -20.5t-46.5 -19.5t-17 -42zM240 -17q-22 0 -37.5 15 t-15.5 37t15.5 37.5t37.5 15.5t37.5 -15.5t15.5 -37.5t-15.5 -37t-37.5 -15zM240 599q-22 0 -37.5 15.5t-15.5 37.5t15.5 37.5t37.5 15.5t37.5 -15.5t15.5 -37.5t-15.5 -37.5t-37.5 -15.5z" glyph-name="dollar" horiz-adv-x="446" unicode="$"/><glyph d="M579 685l-269 -753q-16 -45 -61 -45q-28 0 -49.5 18.5t-21.5 46.5q0 12 5 26l268 752q16 46 62 46q28 0 49 -19t21 -47q0 -14 -4 -25zM587 296q-53 0 -90.5 -37.5t-37.5 -90.5t37.5 -90.5t90.5 -37.5t90.5 37.5t37.5 90.5t-37.5 90.5t-90.5 37.5zM587 228 q25 0 42.5 -17.5t17.5 -42.5t-17.5 -42.5t-42.5 -17.5t-42.5 17.5t-17.5 42.5t17.5 42.5t42.5 17.5zM182 701q-53 0 -90.5 -37.5t-37.5 -90.5t37.5 -90.5t90.5 -37.5t90.5 37.5t37.5 90.5t-37.5 90.5t-90.5 37.5zM182 633q25 0 42.5 -17.5t17.5 -42.5t-17.5 -42.5 t-42.5 -17.5t-42.5 17.5t-17.5 42.5t17.5 42.5t42.5 17.5z" glyph-name="percent" horiz-adv-x="715" unicode="%"/><glyph d="M182 200q-53 0 -90.5 37.5t-37.5 90.5t37.5 90.5t90.5 37.5t90.5 -37.5t37.5 -90.5v-94q0 -33 -34 -33t-34 33v94q0 25 -17.5 42.5t-42.5 17.5t-42.5 -17.5t-17.5 -42.5t17.5 -42.5t42.5 -17.5q34 0 34 -34t-34 -34zM395 347v-113q0 -34 -34 -34t-34 34v113 q0 45 31.5 76.5t76.5 31.5t76.5 -31.5t31.5 -76.5v-113q0 -34 -34 -34t-34 34v113q0 17 -11.5 29t-28.5 12t-28.5 -12t-11.5 -29zM685 388q-25 0 -42.5 -17.5t-17.5 -42.5t17.5 -42.5t42.5 -17.5t42.5 17.5t17.5 42.5v195q0 34 34 34t34 -34v-195q0 -53 -37.5 -90.5 t-90.5 -37.5t-90.5 37.5t-37.5 90.5t37.5 90.5t90.5 37.5q34 0 34 -34t-34 -34z" glyph-name="ampersand" horiz-adv-x="813" unicode="&amp;"/><glyph d="M204 622q0 34 -24.5 58.5t-58.5 24.5t-58.5 -24.5t-24.5 -58.5v-123q0 -34 24.5 -58t58.5 -24t58.5 24t24.5 58v123z" glyph-name="quotesingle" horiz-adv-x="190" unicode="'"/><glyph d="M412 -81q30 0 49 18.5t19 48.5t-19 49t-49 19q-94 0 -158.5 64.5t-64.5 158.5v140q0 94 64.5 158.5t158.5 64.5q30 0 49 19t19 49t-19 48.5t-49 18.5q-150 0 -254 -104t-104 -254v-140q0 -150 104 -254t254 -104z" glyph-name="parenleft" horiz-adv-x="479" unicode="("/><glyph d="M121 -81q-30 0 -49 18.5t-19 48.5t19 49t49 19q94 0 158.5 64.5t64.5 158.5v140q0 94 -64.5 158.5t-158.5 64.5q-30 0 -49 19t-19 49t19 48.5t49 18.5q150 0 254 -104t104 -254v-140q0 -150 -104 -254t-254 -104z" glyph-name="parenright" horiz-adv-x="479" unicode=")"/><glyph d="M241 111q-84 -33 -101 -33q-24 0 -24 47q0 15 3 75q-64 78 -64 94q0 14 27 25q15 6 84 24l45 68q16 22 30 22q13 0 30 -22q3 -3 45 -68q69 -18 84 -24q27 -11 27 -25q0 -16 -64 -94q3 -60 3 -75q0 -47 -24 -47q-17 0 -101 33z" glyph-name="asterisk" horiz-adv-x="427" unicode="*"/><glyph d="M179 129v57h-57q-30 0 -48.5 19t-18.5 49t18.5 48.5t48.5 18.5h57v57q0 67 68 67q30 0 48.5 -18.5t18.5 -48.5v-57h57q30 0 48.5 -18.5t18.5 -48.5q0 -68 -67 -68h-57v-57q0 -30 -18.5 -48.5t-48.5 -18.5t-49 18.5t-19 48.5z" glyph-name="plus" horiz-adv-x="439" unicode="+"/><glyph d="M204 83q0 34 -24.5 58t-58.5 24t-58.5 -24t-24.5 -58v-123q0 -34 24.5 -58.5t58.5 -24.5t58.5 24.5t24.5 58.5v123z" glyph-name="comma" horiz-adv-x="190" unicode=","/><glyph d="M121 227q34 0 58.5 24.5t24.5 58.5t-24.5 58.5t-58.5 24.5t-58.5 -24.5t-24.5 -58.5t24.5 -58.5t58.5 -24.5z" glyph-name="hyphen" horiz-adv-x="190" unicode="-"/><glyph d="M121 227q34 0 58.5 24.5t24.5 58.5t-24.5 58.5t-58.5 24.5t-58.5 -24.5t-24.5 -58.5t24.5 -58.5t58.5 -24.5z" glyph-name="hyphen" horiz-adv-x="190" unicode="‐"/><glyph d="M121 0q35 0 59 24t24 59q0 34 -24.5 58t-58.5 24t-58.5 -24t-24.5 -58q0 -35 24 -59t59 -24z" glyph-name="period" horiz-adv-x="190" unicode="."/><glyph d="M398 685l-269 -753q-16 -45 -61 -45q-28 0 -49 18.5t-21 46.5q0 15 4 26l269 752q16 46 61 46q29 0 49.5 -18.5t20.5 -47.5q0 -14 -4 -25z" glyph-name="slash" horiz-adv-x="361" unicode="/"/><glyph d="M412 705q150 0 254 -104t104 -254t-104 -254t-254 -104t-254 104t-104 254t104 254t254 104zM412 570q-95 0 -159 -64t-64 -159q0 -94 64.5 -158.5t158.5 -64.5t158.5 64.5t64.5 158.5t-64.5 158.5t-158.5 64.5z" glyph-name="zero" horiz-adv-x="769" unicode="0"/><glyph d="M189 638v-580q0 -30 -19 -48.5t-49 -18.5t-48.5 18.5t-18.5 48.5v580q0 30 18.5 48.5t48.5 18.5t49 -18.5t19 -48.5z" glyph-name="one" horiz-adv-x="189" unicode="1"/><glyph d="M333 126h164q30 0 49 -19t19 -49t-19 -48.5t-49 -18.5h-376q-77 0 -77 58q0 39 42 67q58 38 131 91q81 58 130 105q83 79 83 138q0 50 -35.5 85t-85.5 35t-85 -35t-35 -85q0 -30 -19 -49t-49 -19t-48.5 19t-18.5 49q0 108 73.5 181.5t181.5 73.5t182 -73.5t74 -181.5 q0 -96 -78 -186q-44 -51 -154 -138z" glyph-name="two" unicode="2"/><glyph d="M54 494q0 89 61 150t150 61t150.5 -61t61.5 -150q0 -86 -59 -147q59 -60 59 -145q0 -89 -61.5 -150t-150.5 -61h-144q-30 0 -49 18.5t-19 48.5t19 49t49 19h144q32 0 54.5 22t22.5 54q0 33 -25 55t-59 26q-28 3 -47.5 21.5t-19.5 45.5q0 30 21 48t53 19t54.5 23t22.5 54 t-22.5 54t-54.5 22q-31 0 -53.5 -22.5t-22.5 -52.5t-18.5 -49.5t-48.5 -19.5t-49 19t-19 49z" glyph-name="three" horiz-adv-x="480" unicode="3"/><glyph d="M350 196h-80q-92 0 -154 62t-62 154v224q0 30 18.5 49t48.5 19t49 -19t19 -49v-224q0 -34 23.5 -57.5t57.5 -23.5h80v307q0 29 19.5 48t48.5 19q30 0 48.5 -18.5t18.5 -48.5v-580q0 -30 -18.5 -48.5t-48.5 -18.5q-29 0 -48.5 19t-19.5 48v138z" glyph-name="four" horiz-adv-x="486" unicode="4"/><glyph d="M418 570h-229v-68h52q108 0 182 -74t74 -182q0 -107 -74.5 -181t-181.5 -74h-120q-30 0 -48.5 18.5t-18.5 48.5t18.5 49t48.5 19h120q50 0 85.5 35t35.5 85t-35.5 85.5t-85.5 35.5h-120q-27 0 -47 20t-20 47v204q0 27 20 47t47 20h297q30 0 48.5 -18.5t18.5 -48.5 q0 -68 -67 -68z" glyph-name="five" horiz-adv-x="497" unicode="5"/><glyph d="M565 245q0 -108 -74 -182t-182 -74t-181.5 74t-73.5 182v205q0 108 73.5 181.5t181.5 73.5q109 0 185 -78q20 -21 20 -47q0 -28 -21 -48.5t-49 -20.5q-27 0 -48 22q-35 37 -87 37q-44 0 -77.5 -28t-40.5 -71q55 29 118 29q108 0 182 -73.5t74 -181.5zM430 245 q0 50 -35.5 85t-85.5 35t-85 -35t-35 -85t35 -85.5t85 -35.5t85.5 35.5t35.5 85.5z" glyph-name="six" horiz-adv-x="566" unicode="6"/><glyph d="M121 705h318q66 0 66 -62q0 -51 -56 -213l-136 -393q-16 -47 -62 -47q-29 0 -49.5 18.5t-20.5 47.5q0 11 4 23l161 491h-225q-30 0 -48.5 19t-18.5 49t18.5 48.5t48.5 18.5z" glyph-name="seven" horiz-adv-x="505" unicode="7"/><glyph d="M277 571q-28 0 -47 -19.5t-19 -47.5q0 -27 19.5 -46.5t46.5 -19.5q28 0 47.5 19t19.5 47t-19.5 47.5t-47.5 19.5zM432 375q68 -66 68 -161q0 -94 -64.5 -158.5t-158.5 -64.5t-158.5 64.5t-64.5 158.5q0 95 68 161q-46 56 -46 129q0 85 58 143.5t143 58.5q86 0 144 -58 t58 -144q0 -73 -47 -129zM277 303q-37 0 -62.5 -26t-25.5 -63q0 -36 26 -62t62 -26q37 0 62.5 25.5t25.5 62.5t-25.5 63t-62.5 26z" glyph-name="eight" horiz-adv-x="501" unicode="8"/><glyph d="M309 194q-108 0 -181.5 74t-73.5 182t73.5 181.5t181.5 73.5t182 -73.5t74 -181.5v-205q0 -108 -74 -182t-182 -74q-109 0 -184 79q-20 21 -20 46q0 28 20.5 48.5t48.5 20.5q27 0 48 -22q36 -37 87 -37q44 0 77.5 28t41.5 71q-56 -29 -119 -29zM309 329q50 0 85.5 35.5 t35.5 85.5t-35.5 85t-85.5 35t-85 -35t-35 -85t35 -85.5t85 -35.5z" glyph-name="nine" unicode="9"/><glyph d="M121 227q34 0 58.5 24.5t24.5 58.5t-24.5 58.5t-58.5 24.5t-58.5 -24.5t-24.5 -58.5t24.5 -58.5t58.5 -24.5zM121 0q35 0 59 24t24 59q0 34 -24.5 58t-58.5 24t-58.5 -24t-24.5 -58q0 -35 24 -59t59 -24z" glyph-name="colon" horiz-adv-x="190" unicode=":"/><glyph d="M121 227q34 0 58.5 24.5t24.5 58.5t-24.5 58.5t-58.5 24.5t-58.5 -24.5t-24.5 -58.5t24.5 -58.5t58.5 -24.5zM204 83q0 34 -24.5 58t-58.5 24t-58.5 -24t-24.5 -58v-123q0 -34 24.5 -58.5t58.5 -24.5t58.5 24.5t24.5 58.5v123z" glyph-name="semicolon" horiz-adv-x="190" unicode=";"/><glyph d="M173 399l-88 -89q-29 -29 -29 -56q0 -22 29 -56q6 -7 88 -89q21 -21 48 -21t48 21t21 48q0 26 -21 47l-50 50l50 50q21 21 21 47q0 27 -21 48t-48 21t-48 -21z" glyph-name="less" horiz-adv-x="290" unicode="&lt;"/><glyph d="M122 419h249q30 0 48.5 -19t18.5 -49t-18.5 -48.5t-48.5 -18.5h-249q-30 0 -48.5 18.5t-18.5 48.5t18.5 49t48.5 19zM122 223h249q30 0 48.5 -18.5t18.5 -48.5q0 -68 -67 -68h-249q-30 0 -48.5 19t-18.5 49t18.5 48.5t48.5 18.5z" glyph-name="equal" horiz-adv-x="439" unicode="="/><glyph d="M172 399l88 -89q29 -29 29 -56q0 -22 -29 -56q-6 -7 -88 -89q-21 -21 -48 -21t-48 21t-21 48q0 26 21 47l50 50l-50 50q-21 21 -21 47q0 27 21 48t48 21t48 -21z" glyph-name="greater" horiz-adv-x="290" unicode="&gt;"/><glyph d="M54 450q0 108 73.5 181.5t181.5 73.5t182 -73.5t74 -181.5t-74 -182t-182 -74h-79q-30 0 -48.5 18.5t-18.5 48.5t18.5 49t48.5 19h79q50 0 85.5 35.5t35.5 85.5t-35.5 85t-85.5 35t-85 -35t-35 -85q0 -30 -19 -49t-49 -19t-48.5 19t-18.5 49zM240 161q-34 0 -58.5 -24 t-24.5 -58q0 -35 24 -59t59 -24t59 24t24 59q0 34 -24.5 58t-58.5 24z" glyph-name="question" horiz-adv-x="500" unicode="?"/><glyph d="M412 705q150 0 254 -104t104 -254t-104 -254t-254 -104t-254 104t-104 254t104 254t254 104zM412 163q-77 0 -130.5 53.5t-53.5 130.5t53.5 130.5t130.5 53.5t130.5 -53.5t53.5 -130.5v-126q39 57 39 126q0 94 -64.5 158.5t-158.5 64.5q-95 0 -159 -64t-64 -159 q0 -94 64.5 -158.5t158.5 -64.5q45 0 87 17v206q0 36 -25.5 61.5t-61.5 25.5t-61.5 -25.5t-25.5 -61.5t25.5 -61.5t61.5 -25.5q49 0 49 -49q0 -21 -14 -34.5t-35 -13.5z" glyph-name="at" horiz-adv-x="769" unicode="@"/><glyph d="M650 -229h-5q-91 0 -153 62.5t-62 153.5v237q-57 -30 -121 -30q-30 0 -48.5 19t-18.5 49t18.5 48.5t48.5 18.5q50 0 85.5 35.5t35.5 85.5t-35.5 85t-85.5 35t-85 -35t-35 -85v-392q0 -30 -19 -48.5t-49 -18.5t-48.5 18.5t-18.5 48.5v392q0 108 73.5 181.5t181.5 73.5 t182 -73.5t74 -181.5v-463q0 -34 23 -57.5t57 -23.5h5q30 0 48.5 -19t18.5 -49q0 -29 -19 -48t-48 -19z" glyph-name="A" unicode="A"/><glyph d="M54 58v436q0 89 61 150t150 61t150.5 -61t61.5 -150q0 -86 -59 -147q59 -60 59 -145q0 -89 -61.5 -150t-150.5 -61q-29 0 -48 19t-19 48q0 30 19 49t49.5 19t53 22.5t22.5 53.5q0 33 -25 55t-59 26q-28 3 -47.5 21.5t-19.5 45.5q0 30 21 48t53 19t54.5 23t22.5 54 t-22.5 54t-54.5 22q-31 0 -53.5 -22.5t-22.5 -53.5v-436q0 -30 -18.5 -48.5t-48.5 -18.5t-49 18.5t-19 48.5z" glyph-name="B" horiz-adv-x="477" unicode="B"/><glyph d="M412 -11q-150 0 -254 104t-104 254t104 254t254 104q30 0 49 -18.5t19 -48.5t-19 -49t-49 -19q-94 0 -158.5 -64.5t-64.5 -158.5t64.5 -158.5t158.5 -64.5q30 0 49 -19t19 -49t-19 -48.5t-49 -18.5z" glyph-name="C" horiz-adv-x="479" unicode="C"/><glyph d="M270 124q94 0 158.5 64.5t64.5 158.5q0 95 -64 159t-159 64h-81v-512q0 -30 -19 -48.5t-49 -18.5t-48.5 18.5t-18.5 48.5v580q0 27 20 47t47 20h149q151 0 254.5 -103.5t103.5 -254.5t-103.5 -254.5t-254.5 -103.5q-30 0 -48.5 18.5t-18.5 48.5t18.5 49t48.5 19z" glyph-name="D" horiz-adv-x="629" unicode="D"/><glyph d="M412 -11q-150 0 -254 104t-104 254t104 254t254 104q30 0 49 -18.5t19 -48.5t-19 -49t-49 -19q-72 0 -130 -41.5t-81 -109.5h211q30 0 49 -18.5t19 -48.5t-19 -49t-49 -19h-214q21 -71 80.5 -115.5t133.5 -44.5q30 0 49 -19t19 -49t-19 -48.5t-49 -18.5z" glyph-name="E" horiz-adv-x="476" unicode="E"/><glyph d="M363 259h-174v-201q0 -30 -19 -48.5t-49 -18.5t-48.5 18.5t-18.5 48.5v431q0 92 62 154t154 62h93q30 0 49 -18.5t19 -48.5t-19 -49t-49 -19h-93q-34 0 -57.5 -23.5t-23.5 -57.5v-95h174q30 0 49 -18.5t19 -48.5t-19 -49t-49 -19z" glyph-name="F" horiz-adv-x="432" unicode="F"/><glyph d="M489 415h214q27 0 47 -20.5t20 -47.5q0 -150 -104 -254t-254 -104t-254 104t-104 254t104 254t254 104q159 0 267 -120q19 -21 19 -44q0 -28 -21 -48.5t-49 -20.5q-27 0 -49 24q-66 74 -167 74q-95 0 -159 -64t-64 -159q0 -94 64.5 -158.5t158.5 -64.5q74 0 132.5 43 t80.5 113h-136q-30 0 -48.5 19t-18.5 49t18.5 48.5t48.5 18.5z" glyph-name="G" horiz-adv-x="766" unicode="G"/><glyph d="M685 -229h-6q-91 0 -153.5 62.5t-62.5 153.5v322h-274v-251q0 -30 -19 -48.5t-49 -18.5t-48.5 18.5t-18.5 48.5v580q0 30 18.5 48.5t48.5 18.5t49 -18.5t19 -48.5v-194h274v194q0 30 18.5 48.5t48.5 18.5t49 -18.5t19 -48.5v-651q0 -34 23.5 -57.5t57.5 -23.5h6 q30 0 49 -19t19 -49t-19 -48.5t-49 -18.5z" glyph-name="H" horiz-adv-x="597" unicode="H"/><glyph d="M189 638v-580q0 -30 -19 -48.5t-49 -18.5t-48.5 18.5t-18.5 48.5v580q0 30 18.5 48.5t48.5 18.5t49 -18.5t19 -48.5z" glyph-name="I" horiz-adv-x="189" unicode="I"/><glyph d="M495 638v-428q0 -93 -64 -157t-157 -64t-156.5 64t-63.5 157q0 30 19 48.5t49 18.5t48.5 -18.5t18.5 -48.5q0 -36 24.5 -61t60.5 -25t61 25t25 61v428q0 30 18.5 48.5t48.5 18.5t49 -18.5t19 -48.5z" glyph-name="J" horiz-adv-x="494" unicode="J"/><glyph d="M599 -229h-4q-92 0 -154 62t-62 154v221q0 33 -24 56.5t-57 23.5h-109v-230q0 -30 -19 -48.5t-49 -18.5t-48.5 18.5t-18.5 48.5v578q0 30 18.5 49t48.5 19t49 -19t19 -49v-212l51 -1q32 3 52.5 26.5t20.5 55.5q0 29 19 48t48 19q30 0 49 -19t19 -49q0 -62 -33 -115 q99 -64 99 -181v-221q0 -34 23.5 -57.5t57.5 -23.5h4q67 0 67 -68q0 -30 -18.5 -48.5t-48.5 -18.5z" glyph-name="K" horiz-adv-x="514" unicode="K"/><glyph d="M314 -9h-44q-92 0 -154 62t-62 154v431q0 30 18.5 48.5t48.5 18.5t49 -18.5t19 -48.5v-431q0 -34 23.5 -57.5t57.5 -23.5h44q30 0 48.5 -19t18.5 -49t-18.5 -48.5t-48.5 -18.5z" glyph-name="L" horiz-adv-x="381" unicode="L"/><glyph d="M630 489q0 33 -23.5 57t-56.5 24q-40 0 -64 -32v-480q0 -30 -19 -48.5t-49 -18.5t-48.5 18.5t-18.5 48.5v431q0 33 -24 57t-57 24q-34 0 -57.5 -23.5t-23.5 -57.5v-431q0 -30 -18.5 -48.5t-48.5 -18.5t-49 18.5t-19 48.5v431q0 91 62.5 153.5t153.5 62.5q79 0 140 -52 q60 52 140 52q91 0 153 -62.5t62 -153.5v-502q0 -34 23.5 -57.5t57.5 -23.5h4q30 0 49 -19t19 -49t-19 -48.5t-49 -18.5h-4q-91 0 -153.5 62.5t-62.5 153.5v502z" glyph-name="M" horiz-adv-x="766" unicode="M"/><glyph d="M571 -229h-4q-92 0 -154 62t-62 154v58l-1 444q0 33 -23.5 57t-56.5 24q-34 0 -57.5 -23.5t-23.5 -57.5v-431q0 -30 -19 -48.5t-49 -18.5t-48.5 18.5t-18.5 48.5v431q0 91 62.5 153.5t153.5 62.5q85 0 150 -59.5t65 -144.5l1 -514q0 -34 23.5 -57.5t57.5 -23.5h4 q30 0 49 -19t19 -49t-19 -48.5t-49 -18.5z" glyph-name="N" horiz-adv-x="486" unicode="N"/><glyph d="M412 705q150 0 254 -104t104 -254t-104 -254t-254 -104t-254 104t-104 254t104 254t254 104zM412 570q-95 0 -159 -64t-64 -159q0 -94 64.5 -158.5t158.5 -64.5t158.5 64.5t64.5 158.5t-64.5 158.5t-158.5 64.5z" glyph-name="O" horiz-adv-x="769" unicode="O"/><glyph d="M309 329q50 0 85.5 35.5t35.5 85.5t-35.5 85t-85.5 35t-85 -35t-35 -85v-392q0 -30 -19 -48.5t-49 -18.5q-29 0 -48 19t-19 48v392q0 108 73.5 181.5t181.5 73.5t182 -73.5t74 -181.5t-74 -182t-182 -74q-30 0 -48.5 19t-18.5 49t18.5 48.5t48.5 18.5z" glyph-name="P" unicode="P"/><glyph d="M486 -174q0 -29 -19.5 -48t-48.5 -19t-48 19t-19 48l-1 368q0 33 -22.5 57t-54.5 24t-51.5 18.5t-19.5 49.5q0 30 19 48.5t49 18.5q91 0 153 -62.5t62 -153.5v-58q68 23 109 81t41 130q0 94 -64.5 158.5t-158.5 64.5q-95 0 -159 -64t-64 -159q0 -105 81 -172 q26 -21 26 -51q0 -28 -20.5 -49t-48.5 -21q-22 0 -43 17q-130 107 -130 276q0 150 104 254t254 104t254 -104t104 -254q0 -128 -80 -226.5t-205 -123.5z" glyph-name="Q" horiz-adv-x="768" unicode="Q"/><glyph d="M377 203q1 -32 24 -54.5t54.5 -22.5t50.5 -18.5t19 -49.5q0 -30 -19 -48.5t-49 -18.5q-92 0 -153.5 62t-61.5 154v55q0 27 20 47t47 20q50 0 85.5 35.5t35.5 85.5t-35.5 85t-85.5 35t-85 -35t-35 -85v-392q0 -30 -19 -48.5t-49 -18.5q-29 0 -48 19t-19 48v392 q0 108 73.5 181.5t181.5 73.5t182 -73.5t74 -181.5q0 -87 -52 -155t-136 -92z" glyph-name="R" unicode="R"/><glyph d="M334 553q-18 -18 -18 -44l1 -323q0 -82 -57 -139t-139 -57q-30 0 -48.5 18.5t-18.5 48.5t18.5 49t48.5 19q26 0 43.5 17.5t17.5 43.5l-1 323q0 83 57 139.5t139 56.5q30 0 49 -18.5t19 -48.5t-17.5 -47.5t-48 -20t-45.5 -17.5z" glyph-name="S" horiz-adv-x="444" unicode="S"/><glyph d="M346 58q0 -30 -18.5 -48.5t-48.5 -18.5t-49 18.5t-19 48.5v512h-88q-30 0 -49 19t-19 49t19 48.5t49 18.5h316q30 0 49 -18.5t19 -48.5t-19 -49t-49 -19h-93v-512z" glyph-name="T" horiz-adv-x="507" unicode="T"/><glyph d="M189 638v-431q0 -34 23.5 -57.5t57.5 -23.5t57 23.5t23 57.5v432q0 29 19.5 48.5t48.5 19.5q30 0 48.5 -19t18.5 -49v-432q0 -91 -62 -153.5t-153 -62.5q-92 0 -154 62t-62 154v431q0 30 18.5 48.5t48.5 18.5t49 -18.5t19 -48.5z" glyph-name="U" horiz-adv-x="486" unicode="U"/><glyph d="M142 660l137 -396l137 396q16 46 62 46q28 0 49 -19t21 -47q0 -10 -5 -24l-200 -580q-20 -57 -64 -57t-64 57l-201 580q-4 12 -4 24q0 28 21 47t49 19q46 0 62 -46z" glyph-name="V" horiz-adv-x="501" unicode="V"/><glyph d="M332 155q-24 -29 -62 -29q-34 0 -57.5 23.5t-23.5 57.5v431q0 30 -18.5 48.5t-48.5 18.5t-49 -18.5t-19 -48.5v-431q0 -92 62 -154t154 -62q79 0 139 51q60 -51 139 -51q91 0 153.5 62.5t62.5 153.5v431q0 30 -19 48.5t-49 18.5t-48.5 -18.5t-18.5 -48.5v-431 q0 -34 -23.5 -57.5t-57.5 -23.5t-57.5 23.5t-23.5 57.5v431q0 30 -18.5 48.5t-48.5 18.5t-49 -18.5t-19 -48.5v-483z" glyph-name="W" horiz-adv-x="764" unicode="W"/><glyph d="M485 58q0 -30 -18.5 -48.5t-48.5 -18.5q-29 0 -48.5 19t-19.5 48v136q0 33 -23.5 57t-56.5 24q-34 0 -57.5 -23.5t-23.5 -57.5v-136q0 -30 -19 -48.5t-49 -18.5t-48.5 18.5t-18.5 48.5v136q0 89 62 152q-62 63 -62 151v141q0 30 18.5 48.5t48.5 18.5t49 -18.5t19 -48.5 v-141q0 -34 23.5 -57t57.5 -23q33 0 56.5 23.5t23.5 56.5v141q0 29 19.5 48t48.5 19q30 0 48.5 -18.5t18.5 -48.5v-141q0 -88 -62 -151q62 -63 62 -152v-136z" glyph-name="X" horiz-adv-x="486" unicode="X"/><glyph d="M485 207q0 -91 -62 -153.5t-153 -62.5q-92 0 -154 62t-62 154v10q0 30 18.5 48.5t48.5 18.5t49 -18.5t19 -48.5v-10q0 -34 23.5 -57.5t57.5 -23.5t57 23.5t23 57.5v96q-38 -16 -80 -16q-92 0 -154 62t-62 154v135q0 30 18.5 48.5t48.5 18.5t49 -18.5t19 -48.5v-135 q0 -34 23.5 -57.5t57.5 -23.5t57 23.5t23 57.5v0v135q0 29 19.5 48t48.5 19q30 0 48.5 -18.5t18.5 -48.5v-431z" glyph-name="Y" horiz-adv-x="486" unicode="Y"/><glyph d="M121 705h286q72 0 72 -57q0 -20 -14 -44l-281 -478h227q30 0 48.5 -19t18.5 -49t-18.5 -48.5t-48.5 -18.5h-345q-29 0 -50 14.5t-21 42.5q0 23 13 45l281 477h-168q-30 0 -48.5 19t-18.5 49t18.5 48.5t48.5 18.5z" glyph-name="Z" horiz-adv-x="479" unicode="Z"/><glyph d="M314 -209h-44q-91 0 -153.5 62.5t-62.5 153.5v595q0 91 62.5 153.5t153.5 62.5h44q30 0 48.5 -19t18.5 -49t-18.5 -48.5t-48.5 -18.5h-44q-34 0 -57.5 -23.5t-23.5 -57.5v-595q0 -34 23.5 -57.5t57.5 -23.5h44q30 0 48.5 -19t18.5 -49t-18.5 -48.5t-48.5 -18.5z" glyph-name="bracketleft" horiz-adv-x="381" unicode="["/><glyph d="M2 685l269 -753q16 -45 61 -45q28 0 49 18.5t21 46.5q0 15 -4 26l-269 752q-16 46 -61 46q-29 0 -49.5 -18.5t-20.5 -47.5q0 -14 4 -25z" glyph-name="backslash" horiz-adv-x="361" unicode="\"/><glyph d="M121 -209h44q91 0 153.5 62.5t62.5 153.5v595q0 90 -63 153t-153 63h-44q-30 0 -49 -19t-19 -49t19 -48.5t49 -18.5h44q33 0 57 -24t24 -57v-595q0 -34 -23.5 -57.5t-57.5 -23.5h-44q-30 0 -49 -19t-19 -49t19 -48.5t49 -18.5z" glyph-name="bracketright" horiz-adv-x="381" unicode="]"/><glyph d="M368 581q-76 75 -90 88q-33 30 -56 30q-21 0 -55 -30q-17 -15 -90 -88q-21 -21 -21 -47q0 -27 21 -48t48 -21q26 0 47 21l50 49l50 -49q21 -21 47 -21q28 0 49 20.5t21 48.5q0 26 -21 47z" glyph-name="asciicircum" horiz-adv-x="389" unicode="^"/><glyph d="M500 135q30 0 48.5 -18.5t18.5 -48.5t-18.5 -49t-48.5 -19h-375q-30 0 -49 19t-19 49t19 48.5t49 18.5h375z" glyph-name="underscore" horiz-adv-x="571" unicode="_"/><glyph d="M207 649q-21 51 -77 51q-16 0 -31 -6q-51 -21 -51 -77q0 -16 6 -31l47 -114q21 -51 76 -51q16 0 32 7q51 22 51 76q0 18 -6 32z" glyph-name="grave" horiz-adv-x="262" unicode="`"/><glyph d="M309 -11q-108 0 -181.5 74t-73.5 182t73.5 181.5t181.5 73.5t182 -73.5t74 -181.5v-187q0 -30 -19 -48.5t-49 -18.5t-48.5 18.5t-18.5 48.5v187q0 50 -35.5 85t-85.5 35t-85 -35t-35 -85t35 -85.5t85 -35.5q30 0 49 -18.5t19 -48.5t-19 -49t-49 -19z" glyph-name="a" unicode="a"/><glyph d="M309 502q108 0 182 -74t74 -182q0 -107 -74.5 -181t-181.5 -74t-181 74t-74 181v392q0 29 19 48t48 19q30 0 49 -18.5t19 -48.5v-392q0 -50 35 -85t85 -35t85.5 35t35.5 85t-35.5 85.5t-85.5 35.5q-30 0 -48.5 18.5t-18.5 48.5t18.5 49t48.5 19z" glyph-name="b" unicode="b"/><glyph d="M309 367q-50 0 -85 -35.5t-35 -85.5t35 -85t85 -35q30 0 49 -19t19 -49t-19 -48.5t-49 -18.5q-107 0 -181 74t-74 181q0 108 73.5 182t181.5 74q30 0 49 -19t19 -49t-19 -48.5t-49 -18.5z" glyph-name="c" horiz-adv-x="377" unicode="c"/><glyph d="M309 367q-50 0 -85 -35.5t-35 -85.5t35 -85t85 -35t85.5 35t35.5 85v392q0 29 19 48t48 19q30 0 49 -18.5t19 -48.5v-392q0 -107 -74.5 -181t-181.5 -74t-181 74t-74 181q0 108 73.5 182t181.5 74q30 0 49 -19t19 -49t-19 -48.5t-49 -18.5z" glyph-name="d" unicode="d"/><glyph d="M485 321l-128 -125q-22 -21 -47 -21q-28 0 -48.5 21t-20.5 49q0 25 22 47l72 71q-13 2 -26 2q-50 0 -85 -35t-35 -85t35 -85.5t85 -35.5h89q30 0 48.5 -18.5t18.5 -48.5t-18.5 -49t-48.5 -19h-89q-108 0 -181.5 74t-73.5 182t73.5 181.5t181.5 73.5q109 0 185 -78 q20 -21 20 -46q0 -33 -29 -55z" glyph-name="e" horiz-adv-x="514" unicode="e"/><glyph d="M422 211h-233v-153q0 -30 -19 -48.5t-49 -18.5t-48.5 18.5t-18.5 48.5v431q0 92 62 154t154 62q91 0 153 -62.5t62 -153.5v-7q0 -30 -18.5 -49t-48.5 -19q-29 0 -48.5 19.5t-19.5 48.5v7q0 34 -23 57.5t-57 23.5t-57.5 -23.5t-23.5 -57.5v-143h233q30 0 48.5 -19 t18.5 -49t-18.5 -48.5t-48.5 -18.5z" glyph-name="f" horiz-adv-x="487" unicode="f"/><glyph d="M309 -11q-108 0 -181.5 74t-73.5 182t73.5 181.5t181.5 73.5t181.5 -73.5t73.5 -181.5v-241q0 -71 -49.5 -120.5t-119.5 -49.5h-86q-50 0 -85 -35.5t-35 -85.5t35 -85t85 -35t85 35t35 85q0 29 19.5 48.5t48.5 19.5q30 0 48.5 -19t18.5 -49q0 -107 -74 -181t-181 -74 t-181 74t-74 181t73.5 181.5t180.5 74.5h87q14 0 24 10.5t10 24.5v241q0 50 -35 85t-85 35t-85 -35t-35 -85t35 -85.5t85 -35.5q30 0 49 -18.5t19 -48.5t-19 -49t-49 -19z" glyph-name="g" unicode="g"/><glyph d="M571 -229h-4q-92 0 -154 62.5t-62 153.5l-1 298q0 33 -23.5 56.5t-56.5 23.5q-34 0 -57.5 -23t-23.5 -57v-227q0 -30 -19 -48.5t-49 -18.5t-48.5 18.5t-18.5 48.5v580q0 30 18.5 48.5t48.5 18.5t49 -18.5t19 -48.5v-153q38 15 81 15q91 0 153.5 -62t62.5 -153v-298 q0 -34 23.5 -57.5t57.5 -23.5h4q30 0 48.5 -19t18.5 -49t-18.5 -48.5t-48.5 -18.5z" glyph-name="h" horiz-adv-x="486" unicode="h"/><glyph d="M189 58q0 -30 -19 -48.5t-49 -18.5t-48.5 18.5t-18.5 48.5v375q0 30 18.5 48.5t48.5 18.5q68 0 68 -67v-375zM121 714q-34 0 -58.5 -24.5t-24.5 -58.5t24.5 -58.5t58.5 -24.5t58.5 24.5t24.5 58.5t-24.5 58.5t-58.5 24.5z" glyph-name="i" horiz-adv-x="190" unicode="i"/><glyph d="M121 714q-34 0 -58.5 -24.5t-24.5 -58.5t24.5 -58.5t58.5 -24.5t58.5 24.5t24.5 58.5t-24.5 58.5t-58.5 24.5zM-31 -229h4q91 0 153.5 62.5t62.5 153.5v446q0 67 -68 67q-30 0 -48.5 -18.5t-18.5 -48.5v-446q0 -34 -23.5 -57.5t-57.5 -23.5h-4q-30 0 -49 -19t-19 -49 t19 -48.5t49 -18.5z" glyph-name="j" horiz-adv-x="189" unicode="j"/><glyph d="M555 -229h-4q-91 0 -153.5 62.5t-62.5 153.5v118q0 34 -23.5 57t-57.5 23h-65v-127q0 -30 -19 -48.5t-49 -18.5t-48.5 18.5t-18.5 48.5v578q0 30 18.5 49t48.5 19t49 -19t19 -49v-283l43 -1q33 -1 57 22.5t24 56.5q0 69 67 69q30 0 49 -18.5t19 -48.5q0 -91 -66 -155 q88 -65 88 -173v-118q0 -34 23.5 -57.5t57.5 -23.5h4q30 0 49 -19t19 -49t-19 -48.5t-49 -18.5z" glyph-name="k" horiz-adv-x="470" unicode="k"/><glyph d="M189 636v-578q0 -30 -19 -48.5t-49 -18.5t-48.5 18.5t-18.5 48.5v578q0 30 18.5 48.5t48.5 18.5q68 0 68 -67z" glyph-name="l" horiz-adv-x="189" unicode="l"/><glyph d="M630 285q0 33 -23.5 56.5t-56.5 23.5q-40 0 -64 -31v-276q0 -30 -19 -48.5t-49 -18.5t-48.5 18.5t-18.5 48.5v227q0 33 -24 56.5t-57 23.5q-34 0 -57.5 -23t-23.5 -57v-227q0 -30 -18.5 -48.5t-48.5 -18.5t-49 18.5t-19 48.5v227q0 91 62.5 153t153.5 62q79 0 140 -51 q60 51 140 51q91 0 153 -62t62 -153v-298q0 -34 23.5 -57.5t57.5 -23.5h4q30 0 49 -19t19 -49t-19 -48.5t-49 -18.5h-4q-91 0 -153.5 62.5t-62.5 153.5v298z" glyph-name="m" horiz-adv-x="766" unicode="m"/><glyph d="M571 -229h-4q-92 0 -154 62t-62 154v47l-1 251q0 33 -23.5 56.5t-56.5 23.5q-34 0 -57.5 -23t-23.5 -57v-227q0 -30 -19 -48.5t-49 -18.5t-48.5 18.5t-18.5 48.5v227q0 91 62.5 153t153.5 62t153.5 -62t62.5 -153v-298q0 -34 23.5 -57.5t57.5 -23.5h4q30 0 49 -19t19 -49 t-19 -48.5t-49 -18.5z" glyph-name="n" horiz-adv-x="486" unicode="n"/><glyph d="M309 500q108 0 182 -73.5t74 -181.5t-74 -182t-182 -74t-181.5 74t-73.5 182t73.5 181.5t181.5 73.5zM309 365q-50 0 -85 -35t-35 -85t35 -85.5t85 -35.5t85.5 35.5t35.5 85.5t-35.5 85t-85.5 35z" glyph-name="o" horiz-adv-x="566" unicode="o"/><glyph d="M309 124q50 0 85.5 35.5t35.5 85.5t-35.5 85t-85.5 35t-85 -35t-35 -85v-391q0 -30 -19 -49t-49 -19t-48.5 19t-18.5 49v391q0 108 73.5 181.5t181.5 73.5t182 -73.5t74 -181.5t-74 -182t-182 -74q-30 0 -48.5 19t-18.5 49t18.5 48.5t48.5 18.5z" glyph-name="p" unicode="p"/><glyph d="M309 -11q-108 0 -181.5 74t-73.5 182t73.5 181.5t181.5 73.5t182 -73.5t74 -181.5v-391q0 -30 -19 -49t-49 -19t-48.5 19t-18.5 49v391q0 50 -35.5 85t-85.5 35t-85 -35t-35 -85t35 -85.5t85 -35.5q30 0 49 -18.5t19 -48.5t-19 -49t-49 -19z" glyph-name="q" unicode="q"/><glyph d="M189 285v-227q0 -30 -19 -48.5t-49 -18.5t-48.5 18.5t-18.5 48.5v227q0 91 62.5 153t153.5 62q29 0 48 -19t19 -48q0 -62 -69 -68q-34 -3 -56.5 -24.5t-22.5 -55.5z" glyph-name="r" horiz-adv-x="337" unicode="r"/><glyph d="M318 304l-1 -116q-1 -82 -57.5 -139t-138.5 -57q-30 0 -48.5 18.5t-18.5 48.5t18.5 49t48.5 19q26 0 43.5 17.5t17.5 43.5v20q1 40 1 41v55q0 83 56.5 139.5t139.5 56.5q30 0 49 -18.5t19 -48.5q0 -29 -18 -47t-47.5 -20.5t-46.5 -19.5t-17 -42z" glyph-name="s" horiz-adv-x="446" unicode="s"/><glyph d="M485 207q0 -91 -62 -153.5t-153 -62.5q-92 0 -154 62t-62 154v344q0 30 18.5 49t48.5 19t49 -19t19 -49v-53h229q30 0 48.5 -18.5t18.5 -48.5q0 -68 -67 -68h-229v-156q0 -34 23.5 -57.5t57.5 -23.5t57 23.5t23 57.5v9q0 29 19.5 48t48.5 19t48 -19t19 -48v-9z" glyph-name="t" horiz-adv-x="486" unicode="t"/><glyph d="M189 431v-224q0 -34 23.5 -57.5t57.5 -23.5t57 23.5t23 57.5v226q0 30 19 48.5t49 18.5t48.5 -18.5t18.5 -48.5v-226q0 -91 -62 -153.5t-153 -62.5q-92 0 -154 62t-62 154v224q0 30 18.5 49t48.5 19t49 -19t19 -49z" glyph-name="u" horiz-adv-x="486" unicode="u"/><glyph d="M165 457l82 -212l82 212q17 44 61 44q28 0 49 -19t21 -47q0 -13 -5 -26l-145 -375q-21 -54 -63 -54t-63 54l-145 375q-5 13 -5 26q0 28 21 47t49 19q44 0 61 -44z" glyph-name="v" horiz-adv-x="444" unicode="v"/><glyph d="M486 159q24 -31 64 -31q34 0 57 23.5t23 57.5v226q0 30 19 48.5t49 18.5t48.5 -18.5t18.5 -48.5v-226q0 -91 -62 -153.5t-153 -62.5q-80 0 -140 51q-61 -51 -140 -51q-92 0 -154 62t-62 154v226q0 67 68 67q30 0 48.5 -18.5t18.5 -48.5v-226q0 -34 23.5 -57.5t57.5 -23.5 t57.5 23.5t23.5 57.5v226q0 30 18.5 48.5t48.5 18.5q68 0 68 -67v-276z" glyph-name="w" horiz-adv-x="766" unicode="w"/><glyph d="M485 58q0 -30 -18.5 -48.5t-48.5 -18.5q-29 0 -48.5 19t-19.5 48v26q0 33 -23.5 57t-56.5 24q-34 0 -57.5 -23.5t-23.5 -57.5v-26q0 -30 -19 -48.5t-49 -18.5t-48.5 18.5t-18.5 48.5v26q0 97 73 162q-73 64 -73 161v26q0 30 18.5 48.5t48.5 18.5q68 0 68 -67v-26 q0 -34 23.5 -57t57.5 -23q33 0 56.5 23.5t23.5 56.5v26q0 30 19 48.5t49 18.5t48.5 -18.5t18.5 -48.5v-26q0 -97 -73 -161q73 -65 73 -162v-26z" glyph-name="x" horiz-adv-x="487" unicode="x"/><glyph d="M270 -9q-92 0 -154 62t-62 154v226q0 30 18.5 48.5t48.5 18.5q68 0 68 -67v-226q0 -34 23.5 -57.5t57.5 -23.5t57 23.5t23 57.5v226q0 30 19 48.5t49 18.5t48.5 -18.5t18.5 -48.5v-446q0 -91 -62.5 -153.5t-153.5 -62.5h-4q-30 0 -49 18.5t-19 48.5t19 49t49 19h4 q33 0 57 24t24 57v19q-38 -15 -80 -15z" glyph-name="y" horiz-adv-x="486" unicode="y"/><glyph d="M121 500h278q72 0 72 -44q0 -51 -92 -161l-147 -169h136q30 0 48.5 -19t18.5 -49q0 -29 -19 -48t-48 -19h-280q-73 0 -73 45q0 51 92 160l148 169h-134q-29 0 -48 19.5t-19 48.5q0 30 18.5 48.5t48.5 18.5z" glyph-name="z" horiz-adv-x="437" unicode="z"/><glyph d="M314 -209h-44q-91 0 -153.5 62.5t-62.5 153.5v595q0 91 62.5 153.5t153.5 62.5h44q30 0 48.5 -19t18.5 -49t-18.5 -48.5t-48.5 -18.5h-44q-34 0 -57.5 -23.5t-23.5 -57.5v-595q0 -34 23.5 -57.5t57.5 -23.5h44q30 0 48.5 -19t18.5 -49t-18.5 -48.5t-48.5 -18.5z" glyph-name="braceleft" horiz-adv-x="381" unicode="{"/><glyph d="M189 738v-780q0 -30 -19 -48.5t-49 -18.5t-48.5 18.5t-18.5 48.5v780q0 30 18.5 48.5t48.5 18.5t49 -18.5t19 -48.5z" glyph-name="bar" horiz-adv-x="189" unicode="|"/><glyph d="M121 -209h44q91 0 153.5 62.5t62.5 153.5v595q0 90 -63 153t-153 63h-44q-30 0 -49 -19t-19 -49t19 -48.5t49 -18.5h44q33 0 57 -24t24 -57v-595q0 -34 -23.5 -57.5t-57.5 -23.5h-44q-30 0 -49 -19t-19 -49t19 -48.5t49 -18.5z" glyph-name="braceright" horiz-adv-x="381" unicode="}"/><glyph d="M67 657q42 47 93 47q27 0 69 -18l41 -19q3 0 4 1q21 24 49 24t49 -20.5t21 -48.5q0 -24 -19 -45q-42 -47 -92 -47q-24 0 -67.5 18.5l-43.5 18.5q-2 0 -3 -1q-22 -24 -50 -24q-27 0 -48 21t-21 48q0 25 18 45z" glyph-name="asciitilde" horiz-adv-x="393" unicode="~"/><glyph d="M1119 520q33 -44 33 -89q0 -56 -46 -99q5 -14 5 -26q0 -46 -66 -55q1 -8 1 -16q0 -73 -87 -90q-13 -79 -93 -79q-45 0 -97 23v-1q-4 2 -9 6l-75 -56q-48 -35 -83 -35q-79 0 -199 117v-1q-68 -31 -126 -31q-59 0 -105 32q-35 25 -55 63q-18 32 -14 42q-48 26 -74 61 q78 -1 105 36q-65 0 -83 93q99 53 131 109q-105 -10 -137 78q181 35 224 141q32 112 114 199q105 112 201 40q27 4 53 4q181 0 302 -175q50 -73 84 -175q8 -31 8 -70q0 -49 -14 -95q29 -20 51 -20q43 0 51 69zM870 503q-13 54 -42 105q-70 122 -208 211q-109 4 -156 -86 q-20 -38 -26 -91q-1 -40 -8 -74q13 2 29 2q75 0 101 -37q-5 -4 -17 -4q-22 0 -60 13q-32 13 -56 12q-9 -33 -21 -58q-28 -61 -66 -76q-6 -8 -25 -19q25 -120 67 -173q69 -86 100 -115q64 -59 120 -59t119 59q31 29 100 116q40 49 47 126q2 16 2 148zM844 536q-8 -5 -21 1 q-22 13 -42 13q-22 0 -52 -11q-37 -14 -59 -14q-12 0 -17 5q26 36 100 36q18 0 33.5 -2.5t26.5 -6.5q27 -9 31 -21zM822 446q-12 -12 -25 -12q-12 0 -22.5 10t-26.5 15q4 -8 4 -17q0 -14 -10 -24t-24 -10t-24 10t-10 24q0 12 8 21q-23 -9 -23 -24q0 -4 2 -9l-17 5 q5 12 13 20q18 21 46 22v-1q2 1 5 1q35 1 57 -11q6 -4 13 -4q14 0 24 13q2 -18 -17 -22q13 -11 27 -7zM565 434l-17 -5q1 4 1 8q0 22 -32 26q7 -9 7 -20q0 -14 -9.5 -23.5t-23.5 -9.5t-23.5 9.5t-9.5 23.5q0 9 4 16q-11 -4 -17 -11q-14 -18 -30 -18q-10 0 -19 7q8 0 21 13 q-16 3 -16 15q0 5 3 10q18 -14 26 -14q1 0 17.5 9t45.5 8q19 -2 32 -7q34 -12 40 -37zM692 215h-176q30 58 88 58q59 0 88 -58zM691 205q-9 -31 -31 -52q-25 -23 -55 -23q-31 0 -54.5 22t-32.5 53h10q29 -23 77 -23t72 23h14zM721 442q0 5 -5 5t-5 -5t5 -5t5 5zM718 428 q0 9 -9 9q-8 0 -8 -9t8 -9q9 0 9 9zM495 442q0 5 -6 5q-5 0 -5 -5t5 -5q6 0 6 5zM491 428q0 9 -9 9q-8 0 -8 -9t8 -9q9 0 9 9z" glyph-name="dagger" horiz-adv-x="1154" unicode="†"/><glyph d="M309 467q-50 0 -85 -35.5t-35 -85.5t35 -85t85 -35q30 0 49 -19t19 -49t-19 -48.5t-49 -18.5q-107 0 -181 74t-74 181q0 108 73.5 182t181.5 74q30 0 49 -19t19 -49t-19 -48.5t-49 -18.5zM240 -17q-22 0 -37.5 15t-15.5 37t15.5 37.5t37.5 15.5t37.5 -15.5t15.5 -37.5 t-15.5 -37t-37.5 -15zM240 599q-22 0 -37.5 15.5t-15.5 37.5t15.5 37.5t37.5 15.5t37.5 -15.5t15.5 -37.5t-15.5 -37.5t-37.5 -15.5z" glyph-name="cent" horiz-adv-x="377" unicode="¢"/><glyph d="M347 343h-158v-208h193q34 0 57 23.5t23 57.5v44q0 29 19.5 48.5t48.5 19.5q30 0 48.5 -19t18.5 -49v-44q0 -91 -62 -153.5t-153 -62.5h-261q-67 0 -67 74v415q0 91 62.5 153.5t153.5 62.5h44q30 0 48.5 -19t18.5 -49t-18.5 -48.5t-48.5 -18.5h-44q-34 0 -57.5 -23.5 t-23.5 -57.5v-11h158q30 0 49 -18.5t19 -48.5t-19 -49t-49 -19z" glyph-name="sterling" horiz-adv-x="598" unicode="£"/><glyph d="M342 326q0 -91 -62.5 -153.5t-153.5 -62.5h-7q-30 0 -48.5 18.5t-18.5 48.5t18.5 49t48.5 19h7q34 0 57.5 23.5t23.5 57.5v163q0 91 62.5 153.5t153.5 62.5h5q30 0 49 -19t19 -49t-19 -48.5t-49 -18.5h-5q-34 0 -57.5 -23.5t-23.5 -57.5v-163zM499 207 q0 -91 -62.5 -153.5t-153.5 -62.5h-7q-30 0 -48.5 18.5t-18.5 48.5t18.5 49t48.5 19h7q34 0 57.5 23.5t23.5 57.5v163q0 91 62.5 153.5t153.5 62.5h5q67 0 67 -68q0 -30 -18.5 -48.5t-48.5 -18.5h-5q-34 0 -57.5 -23.5t-23.5 -57.5v-163z" glyph-name="section" horiz-adv-x="653" unicode="§"/><glyph d="M188 201q-56 0 -95 39t-39 95t39 94.5t95 38.5q55 0 94 -39t39 -94t-39 -94.5t-94 -39.5z" glyph-name="bullet" horiz-adv-x="324" unicode="•"/><glyph d="M311 570h-1q-50 0 -85.5 -35t-35.5 -85t35.5 -85.5t85.5 -35.5h1v241zM310 194q-108 0 -182 74t-74 182t74 181.5t182 73.5h319q29 0 47 -19t18 -48v-580q0 -30 -19 -48.5t-49 -18.5t-48.5 18.5t-18.5 48.5v512h-113v-512q0 -30 -19 -48.5t-49 -18.5t-48.5 18.5 t-18.5 48.5v136h-1z" glyph-name="paragraph" horiz-adv-x="693" unicode="¶"/><glyph d="M54 -134v628q0 89 61 150t150 61t150.5 -61t61.5 -150q0 -86 -59 -147q59 -60 59 -145q0 -89 -61.5 -150t-150.5 -61q-29 0 -48 19t-19 48q0 30 19 49t49.5 19t53 22.5t22.5 53.5q0 33 -25 55t-59 26q-28 3 -47.5 21.5t-19.5 45.5q0 30 21 48t53 19t54.5 23t22.5 54 t-22.5 54t-54.5 22q-31 0 -53.5 -22.5t-22.5 -53.5v-628q0 -30 -18.5 -49t-48.5 -19t-49 19t-19 49z" glyph-name="germandbls" horiz-adv-x="477" unicode="ß"/><glyph d="M101 929q21 51 76 51q17 0 32 -6q51 -21 51 -77q0 -16 -6 -31l-47 -114q-21 -51 -77 -51q-15 0 -31 7q-51 22 -51 76q0 18 6 32z" glyph-name="acute" horiz-adv-x="262" unicode="´"/><glyph d="M137 705q35 0 59 24t24 59q0 34 -24.5 58t-58.5 24t-58.5 -24t-24.5 -58q0 -35 24 -59t59 -24zM329 705q35 0 58.5 24t23.5 59q0 34 -24 58t-58 24q-35 0 -59 -23.5t-24 -58.5t24 -59t59 -24z" glyph-name="dieresis" horiz-adv-x="413" unicode="¨"/><glyph d="M788 -11q-125 0 -223 78v-67q-19 1 -135 0v224q-57 -30 -121 -30q-30 0 -48.5 19t-18.5 49t18.5 48.5t48.5 18.5q50 0 85.5 35.5t35.5 85.5t-35.5 85t-85.5 35t-85 -35t-35 -85v-392q0 -30 -19 -48.5t-49 -18.5t-48.5 18.5t-18.5 48.5v392q0 108 73.5 181.5t181.5 73.5 q138 0 215 -116q106 116 264 116q30 0 49 -18.5t19 -48.5t-19 -49t-49 -19q-72 0 -130 -41.5t-81 -109.5h211q30 0 49 -18.5t19 -48.5t-19 -49t-49 -19h-214q21 -71 80.5 -115.5t133.5 -44.5q30 0 49 -19t19 -49t-19 -48.5t-49 -18.5z" glyph-name="AE" horiz-adv-x="855" unicode="Æ"/><glyph d="M412 705q150 0 254 -104t104 -254t-104 -254t-254 -104t-254 104t-104 254t104 254t254 104zM412 570q-95 0 -159 -64t-64 -159q0 -94 64.5 -158.5t158.5 -64.5t158.5 64.5t64.5 158.5t-64.5 158.5t-158.5 64.5z" glyph-name="Oslash" horiz-adv-x="769" unicode="Ø"/><glyph d="M122 258h109v26h-109q-30 0 -48.5 19t-18.5 49t18.5 48.5t48.5 18.5h29q-70 64 -70 159v154q0 30 18.5 48.5t48.5 18.5q68 0 68 -67v-154q0 -34 23.5 -57.5t57.5 -23.5t57.5 23.5t23.5 57.5v155q0 30 18.5 49t48.5 19t49 -19t19 -49v-155q0 -95 -70 -159h32 q30 0 48.5 -18.5t18.5 -48.5q0 -68 -67 -68h-109v-26h109q30 0 48.5 -18.5t18.5 -48.5q0 -68 -67 -68h-109v-65q0 -30 -18.5 -48.5t-48.5 -18.5t-49 18.5t-19 48.5v65h-109q-30 0 -48.5 19t-18.5 49t18.5 48.5t48.5 18.5z" glyph-name="yen" horiz-adv-x="541" unicode="¥"/><glyph d="M1119 520q33 -44 33 -89q0 -56 -46 -99q5 -14 5 -26q0 -46 -66 -55q1 -8 1 -16q0 -73 -87 -90q-13 -79 -93 -79q-45 0 -97 23v-1q-4 2 -9 6l-75 -56q-48 -35 -83 -35q-79 0 -199 117v-1q-68 -31 -126 -31q-59 0 -105 32q-35 25 -55 63q-18 32 -14 42q-48 26 -74 61 q78 -1 105 36q-65 0 -83 93q99 53 131 109q-105 -10 -137 78q181 35 224 141q32 112 114 199q105 112 201 40q27 4 53 4q181 0 302 -175q50 -73 84 -175q8 -31 8 -70q0 -49 -14 -95q29 -20 51 -20q43 0 51 69zM870 503q-13 54 -42 105q-70 122 -208 211q-109 4 -156 -86 q-20 -38 -26 -91q-1 -40 -8 -74q13 2 29 2q75 0 101 -37q-5 -4 -17 -4q-22 0 -60 13q-32 13 -56 12q-9 -33 -21 -58q-28 -61 -66 -76q-6 -8 -25 -19q25 -120 67 -173q69 -86 100 -115q64 -59 120 -59t119 59q31 29 100 116q40 49 47 126q2 16 2 148zM844 536q-8 -5 -21 1 q-22 13 -42 13q-22 0 -52 -11q-37 -14 -59 -14q-12 0 -17 5q26 36 100 36q18 0 33.5 -2.5t26.5 -6.5q27 -9 31 -21zM822 446q-12 -12 -25 -12q-12 0 -22.5 10t-26.5 15q4 -8 4 -17q0 -14 -10 -24t-24 -10t-24 10t-10 24q0 12 8 21q-23 -9 -23 -24q0 -4 2 -9l-17 5 q5 12 13 20q18 21 46 22v-1q2 1 5 1q35 1 57 -11q6 -4 13 -4q14 0 24 13q2 -18 -17 -22q13 -11 27 -7zM565 434l-17 -5q1 4 1 8q0 22 -32 26q7 -9 7 -20q0 -14 -9.5 -23.5t-23.5 -9.5t-23.5 9.5t-9.5 23.5q0 9 4 16q-11 -4 -17 -11q-14 -18 -30 -18q-10 0 -19 7q8 0 21 13 q-16 3 -16 15q0 5 3 10q18 -14 26 -14q1 0 17.5 9t45.5 8q19 -2 32 -7q34 -12 40 -37zM692 215h-176q30 58 88 58q59 0 88 -58zM691 205q-9 -31 -31 -52q-25 -23 -55 -23q-31 0 -54.5 22t-32.5 53h10q29 -23 77 -23t72 23h14zM721 442q0 5 -5 5t-5 -5t5 -5t5 5zM718 428 q0 9 -9 9q-8 0 -8 -9t8 -9q9 0 9 9zM495 442q0 5 -6 5q-5 0 -5 -5t5 -5q6 0 6 5zM491 428q0 9 -9 9q-8 0 -8 -9t8 -9q9 0 9 9z" glyph-name="ordfeminine" horiz-adv-x="1103" unicode="ª"/><glyph d="M1119 520q33 -44 33 -89q0 -56 -46 -99q5 -14 5 -26q0 -46 -66 -55q1 -8 1 -16q0 -73 -87 -90q-13 -79 -93 -79q-45 0 -97 23v-1q-4 2 -9 6l-75 -56q-48 -35 -83 -35q-79 0 -199 117v-1q-68 -31 -126 -31q-59 0 -105 32q-35 25 -55 63q-18 32 -14 42q-48 26 -74 61 q78 -1 105 36q-65 0 -83 93q99 53 131 109q-105 -10 -137 78q181 35 224 141q32 112 114 199q105 112 201 40q27 4 53 4q181 0 302 -175q50 -73 84 -175q8 -31 8 -70q0 -49 -14 -95q29 -20 51 -20q43 0 51 69zM870 503q-13 54 -42 105q-70 122 -208 211q-109 4 -156 -86 q-20 -38 -26 -91q-1 -40 -8 -74q13 2 29 2q75 0 101 -37q-5 -4 -17 -4q-22 0 -60 13q-32 13 -56 12q-9 -33 -21 -58q-28 -61 -66 -76q-6 -8 -25 -19q25 -120 67 -173q69 -86 100 -115q64 -59 120 -59t119 59q31 29 100 116q40 49 47 126q2 16 2 148zM844 536q-8 -5 -21 1 q-22 13 -42 13q-22 0 -52 -11q-37 -14 -59 -14q-12 0 -17 5q26 36 100 36q18 0 33.5 -2.5t26.5 -6.5q27 -9 31 -21zM822 446q-12 -12 -25 -12q-12 0 -22.5 10t-26.5 15q4 -8 4 -17q0 -14 -10 -24t-24 -10t-24 10t-10 24q0 12 8 21q-23 -9 -23 -24q0 -4 2 -9l-17 5 q5 12 13 20q18 21 46 22v-1q2 1 5 1q35 1 57 -11q6 -4 13 -4q14 0 24 13q2 -18 -17 -22q13 -11 27 -7zM565 434l-17 -5q1 4 1 8q0 22 -32 26q7 -9 7 -20q0 -14 -9.5 -23.5t-23.5 -9.5t-23.5 9.5t-9.5 23.5q0 9 4 16q-11 -4 -17 -11q-14 -18 -30 -18q-10 0 -19 7q8 0 21 13 q-16 3 -16 15q0 5 3 10q18 -14 26 -14q1 0 17.5 9t45.5 8q19 -2 32 -7q34 -12 40 -37zM692 215h-176q30 58 88 58q59 0 88 -58zM691 205q-9 -31 -31 -52q-25 -23 -55 -23q-31 0 -54.5 22t-32.5 53h10q29 -23 77 -23t72 23h14zM721 442q0 5 -5 5t-5 -5t5 -5t5 5zM718 428 q0 9 -9 9q-8 0 -8 -9t8 -9q9 0 9 9zM495 442q0 5 -6 5q-5 0 -5 -5t5 -5q6 0 6 5zM491 428q0 9 -9 9q-8 0 -8 -9t8 -9q9 0 9 9z" glyph-name="ordmasculine" horiz-adv-x="1103" unicode="º"/><glyph d="M861 321l-128 -125q-22 -21 -46 -21q-28 0 -49 21t-21 49q0 25 22 47l72 71q-13 2 -26 2q-50 0 -85 -35t-35 -85t35 -85.5t85 -35.5h89q30 0 49 -18.5t19 -48.5q0 -29 -19.5 -48.5t-48.5 -19.5h-89q-107 0 -181 74.5t-74 181.5q0 50 -35.5 85t-85.5 35t-85 -35t-35 -85 t35 -85.5t85 -35.5q30 0 49 -18.5t19 -48.5t-19 -49t-49 -19q-108 0 -181.5 74t-73.5 182t73.5 181.5t181.5 73.5q112 0 188 -82q76 82 188 82q109 0 185 -78q20 -21 20 -46q0 -33 -29 -55z" glyph-name="ae" horiz-adv-x="891" unicode="æ"/><glyph d="M412 705q150 0 254 -104t104 -254t-104 -254t-254 -104t-254 104t-104 254t104 254t254 104zM412 570q-95 0 -159 -64t-64 -159q0 -94 64.5 -158.5t158.5 -64.5t158.5 64.5t64.5 158.5t-64.5 158.5t-158.5 64.5z" glyph-name="oslash" horiz-adv-x="769" unicode="ø"/><glyph d="M565 252q0 -108 -74 -182t-182 -74t-181.5 74t-73.5 182q0 107 74 181t181 74h79q30 0 49 -18.5t19 -48.5t-18.5 -49t-48.5 -19h-80q-49 0 -84.5 -35.5t-35.5 -84.5q0 -50 35 -85.5t85 -35.5t85.5 35.5t35.5 85.5q0 29 19 48t48 19q30 0 49 -18.5t19 -48.5zM379 540 q35 0 58.5 24t23.5 59q0 34 -24 58t-58 24q-35 0 -59 -23.5t-24 -58.5t24 -59t59 -24z" glyph-name="questiondown" horiz-adv-x="500" unicode="¿"/><glyph d="M189 68q0 -30 -19 -49t-49 -19t-48.5 19t-18.5 49v356q0 30 18.5 49t48.5 19t49 -19t19 -49v-356zM121 705q-35 0 -59 -24t-24 -59q0 -34 24.5 -58t58.5 -24t58.5 24t24.5 58q0 35 -24 59t-59 24z" glyph-name="exclamdown" horiz-adv-x="190" unicode="¡"/><glyph d="M313 313q30 0 48.5 -18.5t18.5 -48.5t-18.5 -49t-48.5 -19h-35v-178q0 -91 -62.5 -153.5t-153.5 -62.5h-14q-30 0 -48.5 19t-18.5 49t18.5 48.5t48.5 18.5h14q34 0 57.5 23.5t23.5 57.5v178h-21q-30 0 -48.5 19t-18.5 49t18.5 48.5t48.5 18.5h21v176q0 91 62.5 153.5 t153.5 62.5h14q67 0 67 -68q0 -30 -18.5 -48.5t-48.5 -18.5h-14q-34 0 -57.5 -23.5t-23.5 -57.5v-176h35z" glyph-name="florin" horiz-adv-x="440" unicode="ƒ"/><glyph d="M173 399l-88 -89q-29 -29 -29 -56q0 -22 29 -56q6 -7 88 -89q21 -21 48 -21t48 21t21 48q0 26 -21 47l-50 50l50 50q21 21 21 47q0 27 -21 48t-48 21t-48 -21zM389 399l-89 -89q-29 -29 -29 -56q0 -22 29 -56l89 -89q21 -21 47 -21q27 0 48 21t21 48q0 26 -21 47l-50 50 l50 50q21 21 21 47q0 27 -21 48t-48 21q-26 0 -47 -21z" glyph-name="guillemotleft" horiz-adv-x="507" unicode="«"/><glyph d="M384 399l88 -89q30 -30 30 -56q0 -22 -30 -56q-8 -9 -88 -89q-21 -21 -47 -21q-28 0 -48.5 20.5t-20.5 48.5q0 26 21 47l49 50l-49 50q-21 21 -21 47q0 28 20.5 48.5t48.5 20.5q26 0 47 -21zM169 399l88 -89q30 -30 30 -56q0 -22 -30 -56q-8 -9 -88 -89q-21 -21 -47 -21 q-28 0 -49 20.5t-21 48.5q0 26 21 47l50 50l-50 50q-21 21 -21 47q0 28 21 48.5t49 20.5q26 0 47 -21z" glyph-name="guillemotright" horiz-adv-x="507" unicode="»"/><glyph d="M121 0q35 0 59 24t24 59q0 34 -24.5 58t-58.5 24t-58.5 -24t-24.5 -58q0 -35 24 -59t59 -24zM354 0q35 0 59 24t24 59t-24 58.5t-59 23.5q-34 0 -58 -24t-24 -58q0 -35 23.5 -59t58.5 -24zM594 0q35 0 59 24t24 59t-24 58.5t-59 23.5q-34 0 -58 -24t-24 -58 q0 -35 23.5 -59t58.5 -24z" glyph-name="ellipsis" horiz-adv-x="677" unicode="…"/><glyph d="M412 570q-95 0 -159 -64t-64 -159q0 -94 64.5 -158.5t158.5 -64.5t158.5 64.5t64.5 158.5t-64.5 158.5t-158.5 64.5zM993 -11q-87 0 -163.5 39.5t-126.5 109.5q-51 -70 -128 -109.5t-163 -39.5q-150 0 -254 104t-104 254t104 254t254 104q183 0 291 -149 q50 70 126.5 109.5t163.5 39.5q30 0 49 -18.5t19 -48.5t-19 -49t-49 -19q-72 0 -130 -41.5t-81 -109.5h211q30 0 49 -18.5t19 -48.5t-19 -49t-49 -19h-214q21 -71 80.5 -115.5t133.5 -44.5q30 0 49 -19t19 -49t-19 -48.5t-49 -18.5z" glyph-name="OE" horiz-adv-x="1064" unicode="Œ"/><glyph d="M309 365q-50 0 -85 -35t-35 -85t35 -85.5t85 -35.5t85.5 35.5t35.5 85.5t-35.5 85t-85.5 35zM861 321l-128 -125q-22 -21 -46 -21q-28 0 -49 21t-21 49q0 25 22 47l72 71q-13 2 -26 2q-50 0 -85 -35t-35 -85t35 -85.5t85 -35.5h89q30 0 49 -18.5t19 -48.5 q0 -29 -19.5 -48.5t-48.5 -19.5h-89q-112 0 -188 83q-76 -83 -188 -83q-108 0 -181.5 74t-73.5 182t73.5 181.5t181.5 73.5q112 0 188 -82q76 82 188 82q109 0 185 -78q20 -21 20 -46q0 -33 -29 -55z" glyph-name="oe" horiz-adv-x="891" unicode="œ"/><glyph d="M355 313q30 0 49 -18.5t19 -48.5t-19 -49t-49 -19h-236q-30 0 -49 19t-19 49t19 48.5t49 18.5h236z" glyph-name="endash" horiz-adv-x="422" unicode="–"/><glyph d="M555 313q30 0 49 -18.5t19 -48.5t-19 -49t-49 -19h-436q-30 0 -49 19t-19 49t19 48.5t49 18.5h436z" glyph-name="emdash" horiz-adv-x="623" unicode="—"/><glyph d="M204 622q0 34 -24.5 58.5t-58.5 24.5t-58.5 -24.5t-24.5 -58.5v-123q0 -34 24.5 -58t58.5 -24t58.5 24t24.5 58v123zM414 622q0 35 -24 59t-59 24q-34 0 -58 -24.5t-24 -58.5v-123q0 -34 24 -58t58 -24q35 0 59 23.5t24 58.5v123z" glyph-name="quotedblleft" horiz-adv-x="415" unicode="“"/><glyph d="M204 622q0 34 -24.5 58.5t-58.5 24.5t-58.5 -24.5t-24.5 -58.5v-123q0 -34 24.5 -58t58.5 -24t58.5 24t24.5 58v123zM414 622q0 35 -24 59t-59 24q-34 0 -58 -24.5t-24 -58.5v-123q0 -34 24 -58t58 -24q35 0 59 23.5t24 58.5v123z" glyph-name="quotedblright" horiz-adv-x="415" unicode="”"/><glyph d="M204 622q0 34 -24.5 58.5t-58.5 24.5t-58.5 -24.5t-24.5 -58.5v-123q0 -34 24.5 -58t58.5 -24t58.5 24t24.5 58v123z" glyph-name="quoteleft" horiz-adv-x="190" unicode="‘"/><glyph d="M204 622q0 34 -24.5 58.5t-58.5 24.5t-58.5 -24.5t-24.5 -58.5v-123q0 -34 24.5 -58t58.5 -24t58.5 24t24.5 58v123z" glyph-name="quoteright" horiz-adv-x="190" unicode="’"/><glyph d="M398 685l-269 -753q-16 -45 -61 -45q-28 0 -49 18.5t-21 46.5q0 15 4 26l269 752q16 46 61 46q29 0 49.5 -18.5t20.5 -47.5q0 -14 -4 -25z" glyph-name="fraction" horiz-adv-x="361" unicode="⁄"/><glyph d="M115 319h10q-1 14 -1 28q0 16 1 33h-10q-30 0 -48.5 18.5t-18.5 48.5t18.5 49t48.5 19h50q47 88 132 139t185 51q30 0 49 -18.5t19 -48.5t-19 -49t-49 -19q-84 0 -147 -55h109q30 0 49 -19t19 -49t-19 -48.5t-49 -18.5h-183q-2 -17 -2 -33q0 -14 2 -28h183q30 0 49 -18.5 t19 -48.5t-19 -49t-49 -19h-114q64 -60 152 -60q30 0 49 -19t19 -49t-19 -48.5t-49 -18.5q-101 0 -187 52.5t-132 142.5h-48q-30 0 -49 19t-19 49t19 48.5t49 18.5z" glyph-name="currency" horiz-adv-x="551" unicode="€"/><glyph d="M173 399l-88 -89q-29 -29 -29 -56q0 -22 29 -56q6 -7 88 -89q21 -21 48 -21t48 21t21 48q0 26 -21 47l-50 50l50 50q21 21 21 47q0 27 -21 48t-48 21t-48 -21z" glyph-name="guilsinglleft" horiz-adv-x="290" unicode="‹"/><glyph d="M172 399l88 -89q29 -29 29 -56q0 -22 -29 -56q-6 -7 -88 -89q-21 -21 -48 -21t-48 21t-21 48q0 26 21 47l50 50l-50 50q-21 21 -21 47q0 27 21 48t48 21t48 -21z" glyph-name="guilsinglright" horiz-adv-x="290" unicode="›"/><glyph d="M422 211h-233v-153q0 -30 -19 -48.5t-49 -18.5t-48.5 18.5t-18.5 48.5v431q0 92 62 154t154 62q91 0 153 -62.5t62 -153.5v-7q0 -30 -18.5 -49t-48.5 -19q-29 0 -48.5 19.5t-19.5 48.5v7q0 34 -23 57.5t-57 23.5t-57.5 -23.5t-23.5 -57.5v-143h233q30 0 48.5 -19 t18.5 -49t-18.5 -48.5t-48.5 -18.5zM649 58q0 -30 -19 -48.5t-49 -18.5t-48.5 18.5t-18.5 48.5v375q0 30 18.5 48.5t48.5 18.5q68 0 68 -67v-375zM581 714q-34 0 -58.5 -24.5t-24.5 -58.5t24.5 -58.5t58.5 -24.5t58.5 24.5t24.5 58.5t-24.5 58.5t-58.5 24.5z" glyph-name="fi" horiz-adv-x="653" unicode=""/><glyph d="M422 211h-233v-153q0 -30 -19 -48.5t-49 -18.5t-48.5 18.5t-18.5 48.5v431q0 92 62 154t154 62q91 0 153 -62.5t62 -153.5v-7q0 -30 -18.5 -49t-48.5 -19q-29 0 -48.5 19.5t-19.5 48.5v7q0 34 -23 57.5t-57 23.5t-57.5 -23.5t-23.5 -57.5v-143h233q30 0 48.5 -19 t18.5 -49t-18.5 -48.5t-48.5 -18.5zM649 636v-578q0 -30 -19 -48.5t-49 -18.5t-48.5 18.5t-18.5 48.5v578q0 30 18.5 48.5t48.5 18.5q68 0 68 -67z" glyph-name="fl" horiz-adv-x="650" unicode=""/><glyph d="M1119 520q33 -44 33 -89q0 -56 -46 -99q5 -14 5 -26q0 -46 -66 -55q1 -8 1 -16q0 -73 -87 -90q-13 -79 -93 -79q-45 0 -97 23v-1q-4 2 -9 6l-75 -56q-48 -35 -83 -35q-79 0 -199 117v-1q-68 -31 -126 -31q-59 0 -105 32q-35 25 -55 63q-18 32 -14 42q-48 26 -74 61 q78 -1 105 36q-65 0 -83 93q99 53 131 109q-105 -10 -137 78q181 35 224 141q32 112 114 199q105 112 201 40q27 4 53 4q181 0 302 -175q50 -73 84 -175q8 -31 8 -70q0 -49 -14 -95q29 -20 51 -20q43 0 51 69zM870 503q-13 54 -42 105q-70 122 -208 211q-109 4 -156 -86 q-20 -38 -26 -91q-1 -40 -8 -74q13 2 29 2q75 0 101 -37q-5 -4 -17 -4q-22 0 -60 13q-32 13 -56 12q-9 -33 -21 -58q-28 -61 -66 -76q-6 -8 -25 -19q25 -120 67 -173q69 -86 100 -115q64 -59 120 -59t119 59q31 29 100 116q40 49 47 126q2 16 2 148zM844 536q-8 -5 -21 1 q-22 13 -42 13q-22 0 -52 -11q-37 -14 -59 -14q-12 0 -17 5q26 36 100 36q18 0 33.5 -2.5t26.5 -6.5q27 -9 31 -21zM822 446q-12 -12 -25 -12q-12 0 -22.5 10t-26.5 15q4 -8 4 -17q0 -14 -10 -24t-24 -10t-24 10t-10 24q0 12 8 21q-23 -9 -23 -24q0 -4 2 -9l-17 5 q5 12 13 20q18 21 46 22v-1q2 1 5 1q35 1 57 -11q6 -4 13 -4q14 0 24 13q2 -18 -17 -22q13 -11 27 -7zM565 434l-17 -5q1 4 1 8q0 22 -32 26q7 -9 7 -20q0 -14 -9.5 -23.5t-23.5 -9.5t-23.5 9.5t-9.5 23.5q0 9 4 16q-11 -4 -17 -11q-14 -18 -30 -18q-10 0 -19 7q8 0 21 13 q-16 3 -16 15q0 5 3 10q18 -14 26 -14q1 0 17.5 9t45.5 8q19 -2 32 -7q34 -12 40 -37zM692 215h-176q30 58 88 58q59 0 88 -58zM691 205q-9 -31 -31 -52q-25 -23 -55 -23q-31 0 -54.5 22t-32.5 53h10q29 -23 77 -23t72 23h14zM721 442q0 5 -5 5t-5 -5t5 -5t5 5zM718 428 q0 9 -9 9q-8 0 -8 -9t8 -9q9 0 9 9zM495 442q0 5 -6 5q-5 0 -5 -5t5 -5q6 0 6 5zM491 428q0 9 -9 9q-8 0 -8 -9t8 -9q9 0 9 9z" glyph-name="daggerdbl" horiz-adv-x="1103" unicode="‡"/><glyph d="M121 0q35 0 59 24t24 59q0 34 -24.5 58t-58.5 24t-58.5 -24t-24.5 -58q0 -35 24 -59t59 -24z" glyph-name="periodcentered" horiz-adv-x="190" unicode="·"/><glyph d="M121 0q35 0 59 24t24 59q0 34 -24.5 58t-58.5 24t-58.5 -24t-24.5 -58q0 -35 24 -59t59 -24z" glyph-name="periodcentered" horiz-adv-x="190" unicode="∙"/><glyph d="M204 83q0 34 -24.5 58t-58.5 24t-58.5 -24t-24.5 -58v-123q0 -34 24.5 -58.5t58.5 -24.5t58.5 24.5t24.5 58.5v123z" glyph-name="quotesinglbase" horiz-adv-x="190" unicode="‚"/><glyph d="M204 83q0 34 -24.5 58t-58.5 24t-58.5 -24t-24.5 -58v-123q0 -34 24.5 -58.5t58.5 -24.5t58.5 24.5t24.5 58.5v123zM397 83q0 34 -24.5 58t-58.5 24t-58.5 -24t-24.5 -58v-123q0 -34 24.5 -58.5t58.5 -24.5t58.5 24.5t24.5 58.5v123z" glyph-name="quotedblbase" horiz-adv-x="399" unicode="„"/><glyph d="M788 16q0 -53 -37.5 -90.5t-90.5 -37.5t-90.5 37.5t-37.5 90.5q0 12 3 24q-50 5 -84 41.5t-34 86.5q0 53 37.5 90.5t90.5 37.5t90.5 -37.5t37.5 -90.5q0 -13 -2 -25q50 -4 83.5 -40.5t33.5 -86.5zM606 168q0 25 -18 42.5t-43 17.5t-42.5 -17.5t-17.5 -42.5t17.5 -42.5 t42.5 -17.5t43 17.5t18 42.5zM720 16q0 25 -17.5 42.5t-42.5 17.5t-42.5 -17.5t-17.5 -42.5t17.5 -43t42.5 -18t42.5 18t17.5 43zM310 573q0 -53 -37.5 -90.5t-90.5 -37.5t-90.5 37.5t-37.5 90.5t37.5 90.5t90.5 37.5t90.5 -37.5t37.5 -90.5zM579 685l-269 -753 q-16 -45 -61 -45q-28 0 -49.5 18.5t-21.5 46.5q0 12 5 26l268 752q16 46 62 46q28 0 49 -19t21 -47q0 -14 -4 -25zM242 573q0 25 -17.5 42.5t-42.5 17.5t-42.5 -17.5t-17.5 -42.5t17.5 -42.5t42.5 -17.5t42.5 17.5t17.5 42.5z" glyph-name="perthousand" horiz-adv-x="791" unicode="‰"/><glyph d="M189 58q0 -30 -19 -48.5t-49 -18.5t-48.5 18.5t-18.5 48.5v375q0 30 18.5 48.5t48.5 18.5q68 0 68 -67v-375z" glyph-name="dotlessi" horiz-adv-x="190" unicode="ı"/><glyph d="M368 821q-76 75 -90 88q-33 30 -56 30q-21 0 -55 -30q-17 -15 -90 -88q-21 -21 -21 -47q0 -28 20.5 -48.5t48.5 -20.5q26 0 47 21l50 49l50 -49q21 -21 47 -21q28 0 49 20.5t21 48.5q0 26 -21 47z" glyph-name="circumflex" horiz-adv-x="389" unicode="ˆ"/><glyph d="M67 817q42 47 93 47q27 0 69 -18l41 -19q3 0 4 1q21 24 49 24t49 -20.5t21 -48.5q0 -24 -19 -45q-42 -47 -92 -47q-24 0 -67.5 18.5l-43.5 18.5q-2 0 -3 -1q-22 -24 -50 -24q-27 0 -48 21t-21 48q0 25 18 45z" glyph-name="tilde" horiz-adv-x="393" unicode="˜"/><glyph d="M415 840q30 0 49 -18.5t19 -48.5t-19 -49t-49 -19h-223q-30 0 -49 19t-19 49t19 48.5t49 18.5h223z" glyph-name="macron" horiz-adv-x="571" unicode="¯"/><glyph d="M415 840q30 0 49 -18.5t19 -48.5t-19 -49t-49 -19h-223q-30 0 -49 19t-19 49t19 48.5t49 18.5h223z" glyph-name="macron" horiz-adv-x="571" unicode="ˉ"/><glyph d="M390 852q0 -61 -43.5 -104.5t-104.5 -43.5t-104.5 43.5t-43.5 104.5q0 30 19 49t49 19t48.5 -19t18.5 -49q0 -13 13 -13t13 13q0 30 19 49t49 19t48.5 -19t18.5 -49z" glyph-name="breve" horiz-adv-x="436" unicode="˘"/><glyph d="M242 704q35 0 59 24t24 59q0 34 -24.5 58t-58.5 24t-58.5 -24t-24.5 -58q0 -35 24 -59t59 -24z" glyph-name="dotaccent" horiz-adv-x="436" unicode="˙"/><glyph d="M262 811q0 43 -30.5 73.5t-73.5 30.5t-73.5 -30.5t-30.5 -73.5t30.5 -73.5t73.5 -30.5t73.5 30.5t30.5 73.5zM158 782q-29 0 -29 29t29 29t29 -29t-29 -29z" glyph-name="ring" horiz-adv-x="263" unicode="˚"/><glyph d="M54 -337h44q91 0 153.5 62.5t62.5 153.5v121h-135v-121q0 -34 -23.5 -57.5t-57.5 -23.5h-44q-30 0 -49 -19t-19 -49t19 -48.5t49 -18.5z" glyph-name="cedilla" horiz-adv-x="381" unicode="¸"/><glyph d="M932 60q0 -25 -17.5 -42.5t-42.5 -17.5h-758q-25 0 -42.5 17.5t-17.5 42.5v680q0 25 17.5 42.5t42.5 17.5h758q25 0 42.5 -17.5t17.5 -42.5v-680zM885 563v57q0 32 -22.5 54t-54.5 22t-54 -22t-22 -54t22.5 -54.5t54.5 -22.5q20 0 20 21q0 20 -20 20q-15 0 -25.5 10.5 t-10.5 25.5q0 36 35 36q36 0 36 -36v-57q0 -20 21 -20q20 0 20 20zM608 735q0 25 -25 25t-25 -25t25 -25t25 25zM716 564q0 20 -20 20q-15 0 -25.5 10.5t-10.5 25.5t10.5 25.5t25.5 10.5q20 0 20 20t-20 20q-32 0 -54 -22t-22 -54t22 -54t54 -22q20 0 20 20zM603 564v112 q0 20 -21 20q-20 0 -20 -20v-112q0 -20 20 -20q21 0 21 20zM547 676q0 20 -20 20q-25 0 -42 -16.5t-17 -41.5v-35q0 -14 -19.5 -18t-19.5 -21q0 -20 20 -20q25 0 42 17t17 42v35q0 14 19.5 18t19.5 20zM885 229v80q0 45 -31.5 76.5t-76.5 31.5q-46 0 -77 -31t-31 -77 q0 -45 31.5 -76.5t76.5 -31.5q29 0 29 29q0 28 -29 28q-21 0 -36 15t-15 36q0 22 14.5 36.5t36.5 14.5q21 0 36 -15t15 -36v-80q0 -28 28 -28q29 0 29 28zM464 676q0 20 -20 20q-24 0 -41 -17t-17 -41v-17q0 -6 -1 -12v-6q0 -14 -19 -18t-19 -21q0 -20 20 -20q25 0 42 17 t17 42v35q0 14 19 18t19 20zM886 51v92q0 10 -11 10t-11 -10v-92q0 -11 11 -11t11 11zM202 735q0 25 -25 25t-25 -25t25 -25t25 25zM646 309q0 45 -31.5 76.5t-76.5 31.5q-28 0 -28 -28q0 -29 28 -29q21 0 36 -15t15 -36t-15 -35.5t-36 -14.5q-22 0 -36.5 14.5t-14.5 36.5 v165q0 29 -28 29q-29 0 -29 -29v-166q0 -45 31.5 -76t76.5 -31t76.5 31t31.5 76zM855 75v36q0 10 -10 10q-11 0 -11 -10v-36q0 -13 -13 -13t-13 13v36q0 10 -11 10q-10 0 -10 -10v-36q0 -35 34 -35t34 35zM350 659q0 8 -6 14q-22 23 -55 23q-32 0 -54 -22t-22 -54t22 -54.5 t54 -22.5h27q20 0 20 21q0 20 -20 20h-27q-15 0 -25.5 10.5t-10.5 25.5t10.5 25.5t25.5 10.5q4 0 8 -1l-22 -21q-6 -7 -6 -14q0 -21 20 -21q9 0 14 6l39 38q8 6 8 16zM778 86q0 11 -10 11h-37v23q0 12 13 12q12 0 12 -13v-1q0 -11 11 -11t11 11v1q0 35 -34 35q-35 0 -35 -34 v-69q0 -11 11 -11t11 11v24h37q10 0 10 11zM703 142q0 13 -13 13q-14 0 -14 -13t14 -13q13 0 13 13zM700 51v60q0 10 -11 10q-10 0 -10 -10v-60q0 -11 10 -11q11 0 11 11zM408 230v244q0 28 -29 28t-29 -28v-244q0 -28 29 -28t29 28zM197 543v133q0 20 -20 20t-20 -20v-133 q0 -25 -24 -25h-1q-21 0 -21 -20t21 -20h1q27 0 45.5 19t18.5 46zM670 75v1q0 11 -10 11q-11 0 -11 -11v-1q0 -13 -13 -13t-13 13v24h37q10 0 10 11t-10 11h-37v8q0 11 -11 11q-10 0 -10 -11v-54q0 -35 34 -35t34 35zM593 75v36q0 10 -11 10t-11 -10v-36q0 -13 -12 -13 q-13 0 -13 13v36q0 10 -11 10t-11 -10v-36q0 -35 35 -35q34 0 34 35zM516 51v30q0 17 -12 28.5t-29 11.5t-29 -11.5t-12 -28.5t12 -29t29 -12q11 0 11 11q0 7 -10 10q-13 4 -15 8q-5 4 -5 12q0 19 19 19t19 -19v-30q0 -11 11 -11t11 11zM327 229v80q0 45 -31.5 76.5 t-76.5 31.5q-46 0 -77 -31t-31 -77q0 -45 31.5 -76.5t76.5 -31.5q29 0 29 29q0 28 -29 28q-21 0 -35.5 15t-14.5 36q0 22 14 36.5t36 14.5q21 0 36 -15t15 -36v-80q0 -28 28 -28q29 0 29 28zM426 102q0 4 -3 7q-12 12 -30 12q-17 0 -28.5 -11.5t-11.5 -28.5t11.5 -29 t28.5 -12h14q11 0 11 11t-11 11h-14q-19 0 -19 19t19 19q2 0 4 -1l-11 -11q-4 -3 -4 -7q0 -11 11 -11q5 0 8 3l20 20q5 3 5 9zM344 81q0 17 -12 28.5t-29 11.5q-10 0 -10 -10q0 -9 8 -11q21 -5 21 -19q0 -19 -19 -19t-19 19v62q0 11 -11 11q-10 0 -10 -11v-62 q0 -17 11.5 -29t28.5 -12t29 12t12 29zM137 142q0 13 -13 13t-13 -13t13 -13t13 13zM206 111q0 10 -11 10q-31 0 -31 -31v-18q0 -8 -10 -10t-10 -11q0 -11 10 -11q31 0 31 32v18q0 8 10.5 10t10.5 11zM135 51v60q0 10 -11 10t-11 -10v-60q0 -11 11 -11t11 11z" glyph-name="hungarumlaut" horiz-adv-x="932" unicode="˝"/><glyph d="M424 -337h-44q-92 0 -154 62t-62 154v121h135v-121q0 -34 23.5 -57.5t57.5 -23.5h44q30 0 48.5 -19t18.5 -49t-18.5 -48.5t-48.5 -18.5z" glyph-name="ogonek" horiz-adv-x="498" unicode="˛"/><glyph d="M77 826q78 -79 90 -89q34 -29 55 -29q23 0 56 29q8 7 90 89q21 21 21 47q0 28 -21 48.5t-49 20.5q-26 0 -47 -21l-50 -50l-50 50q-21 21 -47 21q-27 0 -48 -21t-21 -48q0 -26 21 -47z" glyph-name="caron" horiz-adv-x="389" unicode="ˇ"/><glyph d="M1119 520q33 -44 33 -89q0 -56 -46 -99q5 -14 5 -26q0 -46 -66 -55q1 -8 1 -16q0 -73 -87 -90q-13 -79 -93 -79q-45 0 -97 23v-1q-4 2 -9 6l-75 -56q-48 -35 -83 -35q-79 0 -199 117v-1q-68 -31 -126 -31q-59 0 -105 32q-35 25 -55 63q-18 32 -14 42q-48 26 -74 61 q78 -1 105 36q-65 0 -83 93q99 53 131 109q-105 -10 -137 78q181 35 224 141q32 112 114 199q105 112 201 40q27 4 53 4q181 0 302 -175q50 -73 84 -175q8 -31 8 -70q0 -49 -14 -95q29 -20 51 -20q43 0 51 69zM870 503q-13 54 -42 105q-70 122 -208 211q-109 4 -156 -86 q-20 -38 -26 -91q-1 -40 -8 -74q13 2 29 2q75 0 101 -37q-5 -4 -17 -4q-22 0 -60 13q-32 13 -56 12q-9 -33 -21 -58q-28 -61 -66 -76q-6 -8 -25 -19q25 -120 67 -173q69 -86 100 -115q64 -59 120 -59t119 59q31 29 100 116q40 49 47 126q2 16 2 148zM844 536q-8 -5 -21 1 q-22 13 -42 13q-22 0 -52 -11q-37 -14 -59 -14q-12 0 -17 5q26 36 100 36q18 0 33.5 -2.5t26.5 -6.5q27 -9 31 -21zM822 446q-12 -12 -25 -12q-12 0 -22.5 10t-26.5 15q4 -8 4 -17q0 -14 -10 -24t-24 -10t-24 10t-10 24q0 12 8 21q-23 -9 -23 -24q0 -4 2 -9l-17 5 q5 12 13 20q18 21 46 22v-1q2 1 5 1q35 1 57 -11q6 -4 13 -4q14 0 24 13q2 -18 -17 -22q13 -11 27 -7zM565 434l-17 -5q1 4 1 8q0 22 -32 26q7 -9 7 -20q0 -14 -9.5 -23.5t-23.5 -9.5t-23.5 9.5t-9.5 23.5q0 9 4 16q-11 -4 -17 -11q-14 -18 -30 -18q-10 0 -19 7q8 0 21 13 q-16 3 -16 15q0 5 3 10q18 -14 26 -14q1 0 17.5 9t45.5 8q19 -2 32 -7q34 -12 40 -37zM692 215h-176q30 58 88 58q59 0 88 -58zM691 205q-9 -31 -31 -52q-25 -23 -55 -23q-31 0 -54.5 22t-32.5 53h10q29 -23 77 -23t72 23h14zM721 442q0 5 -5 5t-5 -5t5 -5t5 5zM718 428 q0 9 -9 9q-8 0 -8 -9t8 -9q9 0 9 9zM495 442q0 5 -6 5q-5 0 -5 -5t5 -5q6 0 6 5zM491 428q0 9 -9 9q-8 0 -8 -9t8 -9q9 0 9 9z" glyph-name="Lslash" horiz-adv-x="1103" unicode="Ł"/><glyph d="M1119 520q33 -44 33 -89q0 -56 -46 -99q5 -14 5 -26q0 -46 -66 -55q1 -8 1 -16q0 -73 -87 -90q-13 -79 -93 -79q-45 0 -97 23v-1q-4 2 -9 6l-75 -56q-48 -35 -83 -35q-79 0 -199 117v-1q-68 -31 -126 -31q-59 0 -105 32q-35 25 -55 63q-18 32 -14 42q-48 26 -74 61 q78 -1 105 36q-65 0 -83 93q99 53 131 109q-105 -10 -137 78q181 35 224 141q32 112 114 199q105 112 201 40q27 4 53 4q181 0 302 -175q50 -73 84 -175q8 -31 8 -70q0 -49 -14 -95q29 -20 51 -20q43 0 51 69zM870 503q-13 54 -42 105q-70 122 -208 211q-109 4 -156 -86 q-20 -38 -26 -91q-1 -40 -8 -74q13 2 29 2q75 0 101 -37q-5 -4 -17 -4q-22 0 -60 13q-32 13 -56 12q-9 -33 -21 -58q-28 -61 -66 -76q-6 -8 -25 -19q25 -120 67 -173q69 -86 100 -115q64 -59 120 -59t119 59q31 29 100 116q40 49 47 126q2 16 2 148zM844 536q-8 -5 -21 1 q-22 13 -42 13q-22 0 -52 -11q-37 -14 -59 -14q-12 0 -17 5q26 36 100 36q18 0 33.5 -2.5t26.5 -6.5q27 -9 31 -21zM822 446q-12 -12 -25 -12q-12 0 -22.5 10t-26.5 15q4 -8 4 -17q0 -14 -10 -24t-24 -10t-24 10t-10 24q0 12 8 21q-23 -9 -23 -24q0 -4 2 -9l-17 5 q5 12 13 20q18 21 46 22v-1q2 1 5 1q35 1 57 -11q6 -4 13 -4q14 0 24 13q2 -18 -17 -22q13 -11 27 -7zM565 434l-17 -5q1 4 1 8q0 22 -32 26q7 -9 7 -20q0 -14 -9.5 -23.5t-23.5 -9.5t-23.5 9.5t-9.5 23.5q0 9 4 16q-11 -4 -17 -11q-14 -18 -30 -18q-10 0 -19 7q8 0 21 13 q-16 3 -16 15q0 5 3 10q18 -14 26 -14q1 0 17.5 9t45.5 8q19 -2 32 -7q34 -12 40 -37zM692 215h-176q30 58 88 58q59 0 88 -58zM691 205q-9 -31 -31 -52q-25 -23 -55 -23q-31 0 -54.5 22t-32.5 53h10q29 -23 77 -23t72 23h14zM721 442q0 5 -5 5t-5 -5t5 -5t5 5zM718 428 q0 9 -9 9q-8 0 -8 -9t8 -9q9 0 9 9zM495 442q0 5 -6 5q-5 0 -5 -5t5 -5q6 0 6 5zM491 428q0 9 -9 9q-8 0 -8 -9t8 -9q9 0 9 9z" glyph-name="lslash" horiz-adv-x="1103" unicode="ł"/><glyph d="M1119 520q33 -44 33 -89q0 -56 -46 -99q5 -14 5 -26q0 -46 -66 -55q1 -8 1 -16q0 -73 -87 -90q-13 -79 -93 -79q-45 0 -97 23v-1q-4 2 -9 6l-75 -56q-48 -35 -83 -35q-79 0 -199 117v-1q-68 -31 -126 -31q-59 0 -105 32q-35 25 -55 63q-18 32 -14 42q-48 26 -74 61 q78 -1 105 36q-65 0 -83 93q99 53 131 109q-105 -10 -137 78q181 35 224 141q32 112 114 199q105 112 201 40q27 4 53 4q181 0 302 -175q50 -73 84 -175q8 -31 8 -70q0 -49 -14 -95q29 -20 51 -20q43 0 51 69zM870 503q-13 54 -42 105q-70 122 -208 211q-109 4 -156 -86 q-20 -38 -26 -91q-1 -40 -8 -74q13 2 29 2q75 0 101 -37q-5 -4 -17 -4q-22 0 -60 13q-32 13 -56 12q-9 -33 -21 -58q-28 -61 -66 -76q-6 -8 -25 -19q25 -120 67 -173q69 -86 100 -115q64 -59 120 -59t119 59q31 29 100 116q40 49 47 126q2 16 2 148zM844 536q-8 -5 -21 1 q-22 13 -42 13q-22 0 -52 -11q-37 -14 -59 -14q-12 0 -17 5q26 36 100 36q18 0 33.5 -2.5t26.5 -6.5q27 -9 31 -21zM822 446q-12 -12 -25 -12q-12 0 -22.5 10t-26.5 15q4 -8 4 -17q0 -14 -10 -24t-24 -10t-24 10t-10 24q0 12 8 21q-23 -9 -23 -24q0 -4 2 -9l-17 5 q5 12 13 20q18 21 46 22v-1q2 1 5 1q35 1 57 -11q6 -4 13 -4q14 0 24 13q2 -18 -17 -22q13 -11 27 -7zM565 434l-17 -5q1 4 1 8q0 22 -32 26q7 -9 7 -20q0 -14 -9.5 -23.5t-23.5 -9.5t-23.5 9.5t-9.5 23.5q0 9 4 16q-11 -4 -17 -11q-14 -18 -30 -18q-10 0 -19 7q8 0 21 13 q-16 3 -16 15q0 5 3 10q18 -14 26 -14q1 0 17.5 9t45.5 8q19 -2 32 -7q34 -12 40 -37zM692 215h-176q30 58 88 58q59 0 88 -58zM691 205q-9 -31 -31 -52q-25 -23 -55 -23q-31 0 -54.5 22t-32.5 53h10q29 -23 77 -23t72 23h14zM721 442q0 5 -5 5t-5 -5t5 -5t5 5zM718 428 q0 9 -9 9q-8 0 -8 -9t8 -9q9 0 9 9zM495 442q0 5 -6 5q-5 0 -5 -5t5 -5q6 0 6 5zM491 428q0 9 -9 9q-8 0 -8 -9t8 -9q9 0 9 9z" glyph-name="Eth" horiz-adv-x="1103" unicode="Ð"/><glyph d="M1119 520q33 -44 33 -89q0 -56 -46 -99q5 -14 5 -26q0 -46 -66 -55q1 -8 1 -16q0 -73 -87 -90q-13 -79 -93 -79q-45 0 -97 23v-1q-4 2 -9 6l-75 -56q-48 -35 -83 -35q-79 0 -199 117v-1q-68 -31 -126 -31q-59 0 -105 32q-35 25 -55 63q-18 32 -14 42q-48 26 -74 61 q78 -1 105 36q-65 0 -83 93q99 53 131 109q-105 -10 -137 78q181 35 224 141q32 112 114 199q105 112 201 40q27 4 53 4q181 0 302 -175q50 -73 84 -175q8 -31 8 -70q0 -49 -14 -95q29 -20 51 -20q43 0 51 69zM870 503q-13 54 -42 105q-70 122 -208 211q-109 4 -156 -86 q-20 -38 -26 -91q-1 -40 -8 -74q13 2 29 2q75 0 101 -37q-5 -4 -17 -4q-22 0 -60 13q-32 13 -56 12q-9 -33 -21 -58q-28 -61 -66 -76q-6 -8 -25 -19q25 -120 67 -173q69 -86 100 -115q64 -59 120 -59t119 59q31 29 100 116q40 49 47 126q2 16 2 148zM844 536q-8 -5 -21 1 q-22 13 -42 13q-22 0 -52 -11q-37 -14 -59 -14q-12 0 -17 5q26 36 100 36q18 0 33.5 -2.5t26.5 -6.5q27 -9 31 -21zM822 446q-12 -12 -25 -12q-12 0 -22.5 10t-26.5 15q4 -8 4 -17q0 -14 -10 -24t-24 -10t-24 10t-10 24q0 12 8 21q-23 -9 -23 -24q0 -4 2 -9l-17 5 q5 12 13 20q18 21 46 22v-1q2 1 5 1q35 1 57 -11q6 -4 13 -4q14 0 24 13q2 -18 -17 -22q13 -11 27 -7zM565 434l-17 -5q1 4 1 8q0 22 -32 26q7 -9 7 -20q0 -14 -9.5 -23.5t-23.5 -9.5t-23.5 9.5t-9.5 23.5q0 9 4 16q-11 -4 -17 -11q-14 -18 -30 -18q-10 0 -19 7q8 0 21 13 q-16 3 -16 15q0 5 3 10q18 -14 26 -14q1 0 17.5 9t45.5 8q19 -2 32 -7q34 -12 40 -37zM692 215h-176q30 58 88 58q59 0 88 -58zM691 205q-9 -31 -31 -52q-25 -23 -55 -23q-31 0 -54.5 22t-32.5 53h10q29 -23 77 -23t72 23h14zM721 442q0 5 -5 5t-5 -5t5 -5t5 5zM718 428 q0 9 -9 9q-8 0 -8 -9t8 -9q9 0 9 9zM495 442q0 5 -6 5q-5 0 -5 -5t5 -5q6 0 6 5zM491 428q0 9 -9 9q-8 0 -8 -9t8 -9q9 0 9 9z" glyph-name="eth" horiz-adv-x="1103" unicode="ð"/><glyph d="M334 553q-18 -18 -18 -44l1 -323q0 -82 -57 -139t-139 -57q-30 0 -48.5 18.5t-18.5 48.5t18.5 49t48.5 19q26 0 43.5 17.5t17.5 43.5l-1 323q0 83 57 139.5t139 56.5q30 0 49 -18.5t19 -48.5t-17.5 -47.5t-48 -20t-45.5 -17.5zM107 866q78 -79 90 -89q34 -29 55 -29 q23 0 56 29q8 7 90 89q21 21 21 47q0 28 -21 48.5t-49 20.5q-26 0 -47 -21l-50 -50l-50 50q-21 21 -47 21q-27 0 -48 -21t-21 -48q0 -26 21 -47z" glyph-name="Scaron" horiz-adv-x="444" unicode="Š"/><glyph d="M318 304l-1 -116q-1 -82 -57.5 -139t-138.5 -57q-30 0 -48.5 18.5t-18.5 48.5t18.5 49t48.5 19q26 0 43.5 17.5t17.5 43.5v20q1 40 1 41v55q0 83 56.5 139.5t139.5 56.5q30 0 49 -18.5t19 -48.5q0 -29 -18 -47t-47.5 -20.5t-46.5 -19.5t-17 -42zM107 666q78 -79 90 -89 q34 -29 55 -29q23 0 56 29q8 7 90 89q21 21 21 47q0 28 -21 48.5t-49 20.5q-26 0 -47 -21l-50 -50l-50 50q-21 21 -47 21q-27 0 -48 -21t-21 -48q0 -26 21 -47z" glyph-name="scaron" horiz-adv-x="446" unicode="š"/><glyph d="M485 207q0 -91 -62 -153.5t-153 -62.5q-92 0 -154 62t-62 154v10q0 30 18.5 48.5t48.5 18.5t49 -18.5t19 -48.5v-10q0 -34 23.5 -57.5t57.5 -23.5t57 23.5t23 57.5v96q-38 -16 -80 -16q-92 0 -154 62t-62 154v135q0 30 18.5 48.5t48.5 18.5t49 -18.5t19 -48.5v-135 q0 -34 23.5 -57.5t57.5 -23.5t57 23.5t23 57.5v0v135q0 29 19.5 48t48.5 19q30 0 48.5 -18.5t18.5 -48.5v-431zM241 979q21 51 76 51q17 0 32 -6q51 -21 51 -77q0 -16 -6 -31l-47 -114q-21 -51 -77 -51q-15 0 -31 7q-51 22 -51 76q0 18 6 32z" glyph-name="Yacute" horiz-adv-x="486" unicode="Ý"/><glyph glyph-name="HT" horiz-adv-x="303"/><glyph d="M1119 520q33 -44 33 -89q0 -56 -46 -99q5 -14 5 -26q0 -46 -66 -55q1 -8 1 -16q0 -73 -87 -90q-13 -79 -93 -79q-45 0 -97 23v-1q-4 2 -9 6l-75 -56q-48 -35 -83 -35q-79 0 -199 117v-1q-68 -31 -126 -31q-59 0 -105 32q-35 25 -55 63q-18 32 -14 42q-48 26 -74 61 q78 -1 105 36q-65 0 -83 93q99 53 131 109q-105 -10 -137 78q181 35 224 141q32 112 114 199q105 112 201 40q27 4 53 4q181 0 302 -175q50 -73 84 -175q8 -31 8 -70q0 -49 -14 -95q29 -20 51 -20q43 0 51 69zM870 503q-13 54 -42 105q-70 122 -208 211q-109 4 -156 -86 q-20 -38 -26 -91q-1 -40 -8 -74q13 2 29 2q75 0 101 -37q-5 -4 -17 -4q-22 0 -60 13q-32 13 -56 12q-9 -33 -21 -58q-28 -61 -66 -76q-6 -8 -25 -19q25 -120 67 -173q69 -86 100 -115q64 -59 120 -59t119 59q31 29 100 116q40 49 47 126q2 16 2 148zM844 536q-8 -5 -21 1 q-22 13 -42 13q-22 0 -52 -11q-37 -14 -59 -14q-12 0 -17 5q26 36 100 36q18 0 33.5 -2.5t26.5 -6.5q27 -9 31 -21zM822 446q-12 -12 -25 -12q-12 0 -22.5 10t-26.5 15q4 -8 4 -17q0 -14 -10 -24t-24 -10t-24 10t-10 24q0 12 8 21q-23 -9 -23 -24q0 -4 2 -9l-17 5 q5 12 13 20q18 21 46 22v-1q2 1 5 1q35 1 57 -11q6 -4 13 -4q14 0 24 13q2 -18 -17 -22q13 -11 27 -7zM565 434l-17 -5q1 4 1 8q0 22 -32 26q7 -9 7 -20q0 -14 -9.5 -23.5t-23.5 -9.5t-23.5 9.5t-9.5 23.5q0 9 4 16q-11 -4 -17 -11q-14 -18 -30 -18q-10 0 -19 7q8 0 21 13 q-16 3 -16 15q0 5 3 10q18 -14 26 -14q1 0 17.5 9t45.5 8q19 -2 32 -7q34 -12 40 -37zM692 215h-176q30 58 88 58q59 0 88 -58zM691 205q-9 -31 -31 -52q-25 -23 -55 -23q-31 0 -54.5 22t-32.5 53h10q29 -23 77 -23t72 23h14zM721 442q0 5 -5 5t-5 -5t5 -5t5 5zM718 428 q0 9 -9 9q-8 0 -8 -9t8 -9q9 0 9 9zM495 442q0 5 -6 5q-5 0 -5 -5t5 -5q6 0 6 5zM491 428q0 9 -9 9q-8 0 -8 -9t8 -9q9 0 9 9z" glyph-name="Thorn" horiz-adv-x="1103" unicode="Þ"/><glyph d="M1119 520q33 -44 33 -89q0 -56 -46 -99q5 -14 5 -26q0 -46 -66 -55q1 -8 1 -16q0 -73 -87 -90q-13 -79 -93 -79q-45 0 -97 23v-1q-4 2 -9 6l-75 -56q-48 -35 -83 -35q-79 0 -199 117v-1q-68 -31 -126 -31q-59 0 -105 32q-35 25 -55 63q-18 32 -14 42q-48 26 -74 61 q78 -1 105 36q-65 0 -83 93q99 53 131 109q-105 -10 -137 78q181 35 224 141q32 112 114 199q105 112 201 40q27 4 53 4q181 0 302 -175q50 -73 84 -175q8 -31 8 -70q0 -49 -14 -95q29 -20 51 -20q43 0 51 69zM870 503q-13 54 -42 105q-70 122 -208 211q-109 4 -156 -86 q-20 -38 -26 -91q-1 -40 -8 -74q13 2 29 2q75 0 101 -37q-5 -4 -17 -4q-22 0 -60 13q-32 13 -56 12q-9 -33 -21 -58q-28 -61 -66 -76q-6 -8 -25 -19q25 -120 67 -173q69 -86 100 -115q64 -59 120 -59t119 59q31 29 100 116q40 49 47 126q2 16 2 148zM844 536q-8 -5 -21 1 q-22 13 -42 13q-22 0 -52 -11q-37 -14 -59 -14q-12 0 -17 5q26 36 100 36q18 0 33.5 -2.5t26.5 -6.5q27 -9 31 -21zM822 446q-12 -12 -25 -12q-12 0 -22.5 10t-26.5 15q4 -8 4 -17q0 -14 -10 -24t-24 -10t-24 10t-10 24q0 12 8 21q-23 -9 -23 -24q0 -4 2 -9l-17 5 q5 12 13 20q18 21 46 22v-1q2 1 5 1q35 1 57 -11q6 -4 13 -4q14 0 24 13q2 -18 -17 -22q13 -11 27 -7zM565 434l-17 -5q1 4 1 8q0 22 -32 26q7 -9 7 -20q0 -14 -9.5 -23.5t-23.5 -9.5t-23.5 9.5t-9.5 23.5q0 9 4 16q-11 -4 -17 -11q-14 -18 -30 -18q-10 0 -19 7q8 0 21 13 q-16 3 -16 15q0 5 3 10q18 -14 26 -14q1 0 17.5 9t45.5 8q19 -2 32 -7q34 -12 40 -37zM692 215h-176q30 58 88 58q59 0 88 -58zM691 205q-9 -31 -31 -52q-25 -23 -55 -23q-31 0 -54.5 22t-32.5 53h10q29 -23 77 -23t72 23h14zM721 442q0 5 -5 5t-5 -5t5 -5t5 5zM718 428 q0 9 -9 9q-8 0 -8 -9t8 -9q9 0 9 9zM495 442q0 5 -6 5q-5 0 -5 -5t5 -5q6 0 6 5zM491 428q0 9 -9 9q-8 0 -8 -9t8 -9q9 0 9 9z" glyph-name="thorn" horiz-adv-x="1103" unicode="þ"/><glyph glyph-name="nonmarkingreturn" horiz-adv-x="303"/><glyph d="M121 705h286q72 0 72 -57q0 -20 -14 -44l-281 -478h227q30 0 48.5 -19t18.5 -49t-18.5 -48.5t-48.5 -18.5h-345q-29 0 -50 14.5t-21 42.5q0 23 13 45l281 477h-168q-30 0 -48.5 19t-18.5 49t18.5 48.5t48.5 18.5zM127 866q78 -79 90 -89q34 -29 55 -29q23 0 56 29 q8 7 90 89q21 21 21 47q0 28 -21 48.5t-49 20.5q-26 0 -47 -21l-50 -50l-50 50q-21 21 -47 21q-27 0 -48 -21t-21 -48q0 -26 21 -47z" glyph-name="Zcaron" horiz-adv-x="479" unicode="Ž"/><glyph d="M121 500h278q72 0 72 -44q0 -51 -92 -161l-147 -169h136q30 0 48.5 -19t18.5 -49q0 -29 -19 -48t-48 -19h-280q-73 0 -73 45q0 51 92 160l148 169h-134q-29 0 -48 19.5t-19 48.5q0 30 18.5 48.5t48.5 18.5zM107 666q78 -79 90 -89q34 -29 55 -29q23 0 56 29q8 7 90 89 q21 21 21 47q0 28 -21 48.5t-49 20.5q-26 0 -47 -21l-50 -50l-50 50q-21 21 -47 21q-27 0 -48 -21t-21 -48q0 -26 21 -47z" glyph-name="zcaron" horiz-adv-x="437" unicode="ž"/><glyph d="M650 -229h-5q-91 0 -153 62.5t-62 153.5v237q-57 -30 -121 -30q-30 0 -48.5 19t-18.5 49t18.5 48.5t48.5 18.5q50 0 85.5 35.5t35.5 85.5t-35.5 85t-85.5 35t-85 -35t-35 -85v-392q0 -30 -19 -48.5t-49 -18.5t-48.5 18.5t-18.5 48.5v392q0 108 73.5 181.5t181.5 73.5 t182 -73.5t74 -181.5v-463q0 -34 23 -57.5t57 -23.5h5q30 0 48.5 -19t18.5 -49q0 -29 -19 -48t-48 -19zM217 765q35 0 59 24t24 59q0 34 -24.5 58t-58.5 24t-58.5 -24t-24.5 -58q0 -35 24 -59t59 -24zM409 765q35 0 58.5 24t23.5 59q0 34 -24 58t-58 24q-35 0 -59 -23.5 t-24 -58.5t24 -59t59 -24z" glyph-name="Adieresis" unicode="Ä"/><glyph d="M650 -229h-5q-91 0 -153 62.5t-62 153.5v237q-57 -30 -121 -30q-30 0 -48.5 19t-18.5 49t18.5 48.5t48.5 18.5q50 0 85.5 35.5t35.5 85.5t-35.5 85t-85.5 35t-85 -35t-35 -85v-392q0 -30 -19 -48.5t-49 -18.5t-48.5 18.5t-18.5 48.5v392q0 108 73.5 181.5t181.5 73.5 t182 -73.5t74 -181.5v-463q0 -34 23 -57.5t57 -23.5h5q30 0 48.5 -19t18.5 -49q0 -29 -19 -48t-48 -19zM402 861q0 43 -30.5 73.5t-73.5 30.5t-73.5 -30.5t-30.5 -73.5t30.5 -73.5t73.5 -30.5t73.5 30.5t30.5 73.5zM298 832q-29 0 -29 29t29 29t29 -29t-29 -29z" glyph-name="Aring" unicode="Å"/><glyph d="M412 -11q-150 0 -254 104t-104 254t104 254t254 104q30 0 49 -18.5t19 -48.5t-19 -49t-49 -19q-94 0 -158.5 -64.5t-64.5 -158.5t64.5 -158.5t158.5 -64.5q30 0 49 -19t19 -49t-19 -48.5t-49 -18.5zM304 -201q34 0 58 24.5t24 58.5t-24 58.5t-58 24.5t-58.5 -24.5 t-24.5 -58.5t24.5 -58.5t58.5 -24.5z" glyph-name="Ccedilla" horiz-adv-x="479" unicode="Ç"/><glyph d="M412 -11q-150 0 -254 104t-104 254t104 254t254 104q30 0 49 -18.5t19 -48.5t-19 -49t-49 -19q-72 0 -130 -41.5t-81 -109.5h211q30 0 49 -18.5t19 -48.5t-19 -49t-49 -19h-214q21 -71 80.5 -115.5t133.5 -44.5q30 0 49 -19t19 -49t-19 -48.5t-49 -18.5zM241 979 q21 51 76 51q17 0 32 -6q51 -21 51 -77q0 -16 -6 -31l-47 -114q-21 -51 -77 -51q-15 0 -31 7q-51 22 -51 76q0 18 6 32z" glyph-name="Eacute" horiz-adv-x="476" unicode="É"/><glyph d="M571 -229h-4q-92 0 -154 62t-62 154v58l-1 444q0 33 -23.5 57t-56.5 24q-34 0 -57.5 -23.5t-23.5 -57.5v-431q0 -30 -19 -48.5t-49 -18.5t-48.5 18.5t-18.5 48.5v431q0 91 62.5 153.5t153.5 62.5q85 0 150 -59.5t65 -144.5l1 -514q0 -34 23.5 -57.5t57.5 -23.5h4 q30 0 49 -19t19 -49t-19 -48.5t-49 -18.5zM107 887q42 47 93 47q27 0 69 -18l41 -19q3 0 4 1q21 24 49 24t49 -20.5t21 -48.5q0 -24 -19 -45q-42 -47 -92 -47q-24 0 -67.5 18.5l-43.5 18.5q-2 0 -3 -1q-22 -24 -50 -24q-27 0 -48 21t-21 48q0 25 18 45z" glyph-name="Ntilde" horiz-adv-x="486" unicode="Ñ"/><glyph d="M412 705q150 0 254 -104t104 -254t-104 -254t-254 -104t-254 104t-104 254t104 254t254 104zM412 570q-95 0 -159 -64t-64 -159q0 -94 64.5 -158.5t158.5 -64.5t158.5 64.5t64.5 158.5t-64.5 158.5t-158.5 64.5zM317 765q35 0 59 24t24 59q0 34 -24.5 58t-58.5 24 t-58.5 -24t-24.5 -58q0 -35 24 -59t59 -24zM509 765q35 0 58.5 24t23.5 59q0 34 -24 58t-58 24q-35 0 -59 -23.5t-24 -58.5t24 -59t59 -24z" glyph-name="Odieresis" horiz-adv-x="769" unicode="Ö"/><glyph d="M189 638v-431q0 -34 23.5 -57.5t57.5 -23.5t57 23.5t23 57.5v432q0 29 19.5 48.5t48.5 19.5q30 0 48.5 -19t18.5 -49v-432q0 -91 -62 -153.5t-153 -62.5q-92 0 -154 62t-62 154v431q0 30 18.5 48.5t48.5 18.5t49 -18.5t19 -48.5zM187 765q35 0 59 24t24 59q0 34 -24.5 58 t-58.5 24t-58.5 -24t-24.5 -58q0 -35 24 -59t59 -24zM379 765q35 0 58.5 24t23.5 59q0 34 -24 58t-58 24q-35 0 -59 -23.5t-24 -58.5t24 -59t59 -24z" glyph-name="Udieresis" horiz-adv-x="486" unicode="Ü"/><glyph d="M309 -11q-108 0 -181.5 74t-73.5 182t73.5 181.5t181.5 73.5t182 -73.5t74 -181.5v-187q0 -30 -19 -48.5t-49 -18.5t-48.5 18.5t-18.5 48.5v187q0 50 -35.5 85t-85.5 35t-85 -35t-35 -85t35 -85.5t85 -35.5q30 0 49 -18.5t19 -48.5t-19 -49t-49 -19zM261 779q21 51 76 51 q17 0 32 -6q51 -21 51 -77q0 -16 -6 -31l-47 -114q-21 -51 -77 -51q-15 0 -31 7q-51 22 -51 76q0 18 6 32z" glyph-name="aacute" unicode="á"/><glyph d="M309 -11q-108 0 -181.5 74t-73.5 182t73.5 181.5t181.5 73.5t182 -73.5t74 -181.5v-187q0 -30 -19 -48.5t-49 -18.5t-48.5 18.5t-18.5 48.5v187q0 50 -35.5 85t-85.5 35t-85 -35t-35 -85t35 -85.5t85 -35.5q30 0 49 -18.5t19 -48.5t-19 -49t-49 -19zM327 779 q-21 51 -77 51q-16 0 -31 -6q-51 -21 -51 -77q0 -16 6 -31l47 -114q21 -51 76 -51q16 0 32 7q51 22 51 76q0 18 -6 32z" glyph-name="agrave" unicode="à"/><glyph d="M309 -11q-108 0 -181.5 74t-73.5 182t73.5 181.5t181.5 73.5t182 -73.5t74 -181.5v-187q0 -30 -19 -48.5t-49 -18.5t-48.5 18.5t-18.5 48.5v187q0 50 -35.5 85t-85.5 35t-85 -35t-35 -85t35 -85.5t85 -35.5q30 0 49 -18.5t19 -48.5t-19 -49t-49 -19zM468 671 q-76 75 -90 88q-33 30 -56 30q-21 0 -55 -30q-17 -15 -90 -88q-21 -21 -21 -47q0 -28 20.5 -48.5t48.5 -20.5q26 0 47 21l50 49l50 -49q21 -21 47 -21q28 0 49 20.5t21 48.5q0 26 -21 47z" glyph-name="acircumflex" unicode="â"/><glyph d="M309 -11q-108 0 -181.5 74t-73.5 182t73.5 181.5t181.5 73.5t182 -73.5t74 -181.5v-187q0 -30 -19 -48.5t-49 -18.5t-48.5 18.5t-18.5 48.5v187q0 50 -35.5 85t-85.5 35t-85 -35t-35 -85t35 -85.5t85 -35.5q30 0 49 -18.5t19 -48.5t-19 -49t-49 -19zM217 565q35 0 59 24 t24 59q0 34 -24.5 58t-58.5 24t-58.5 -24t-24.5 -58q0 -35 24 -59t59 -24zM409 565q35 0 58.5 24t23.5 59q0 34 -24 58t-58 24q-35 0 -59 -23.5t-24 -58.5t24 -59t59 -24z" glyph-name="adieresis" unicode="ä"/><glyph d="M309 -11q-108 0 -181.5 74t-73.5 182t73.5 181.5t181.5 73.5t182 -73.5t74 -181.5v-187q0 -30 -19 -48.5t-49 -18.5t-48.5 18.5t-18.5 48.5v187q0 50 -35.5 85t-85.5 35t-85 -35t-35 -85t35 -85.5t85 -35.5q30 0 49 -18.5t19 -48.5t-19 -49t-49 -19zM157 687q42 47 93 47 q27 0 69 -18l41 -19q3 0 4 1q21 24 49 24t49 -20.5t21 -48.5q0 -24 -19 -45q-42 -47 -92 -47q-24 0 -67.5 18.5l-43.5 18.5q-2 0 -3 -1q-22 -24 -50 -24q-27 0 -48 21t-21 48q0 25 18 45z" glyph-name="atilde" unicode="ã"/><glyph d="M309 -11q-108 0 -181.5 74t-73.5 182t73.5 181.5t181.5 73.5t182 -73.5t74 -181.5v-187q0 -30 -19 -48.5t-49 -18.5t-48.5 18.5t-18.5 48.5v187q0 50 -35.5 85t-85.5 35t-85 -35t-35 -85t35 -85.5t85 -35.5q30 0 49 -18.5t19 -48.5t-19 -49t-49 -19zM402 661 q0 43 -30.5 73.5t-73.5 30.5t-73.5 -30.5t-30.5 -73.5t30.5 -73.5t73.5 -30.5t73.5 30.5t30.5 73.5zM298 632q-29 0 -29 29t29 29t29 -29t-29 -29z" glyph-name="aring" unicode="å"/><glyph d="M309 367q-50 0 -85 -35.5t-35 -85.5t35 -85t85 -35q30 0 49 -19t19 -49t-19 -48.5t-49 -18.5q-107 0 -181 74t-74 181q0 108 73.5 182t181.5 74q30 0 49 -19t19 -49t-19 -48.5t-49 -18.5zM254 -201q34 0 58 24.5t24 58.5t-24 58.5t-58 24.5t-58.5 -24.5t-24.5 -58.5 t24.5 -58.5t58.5 -24.5z" glyph-name="ccedilla" horiz-adv-x="377" unicode="ç"/><glyph d="M485 321l-128 -125q-22 -21 -47 -21q-28 0 -48.5 21t-20.5 49q0 25 22 47l72 71q-13 2 -26 2q-50 0 -85 -35t-35 -85t35 -85.5t85 -35.5h89q30 0 48.5 -18.5t18.5 -48.5t-18.5 -49t-48.5 -19h-89q-108 0 -181.5 74t-73.5 182t73.5 181.5t181.5 73.5q109 0 185 -78 q20 -21 20 -46q0 -33 -29 -55zM261 779q21 51 76 51q17 0 32 -6q51 -21 51 -77q0 -16 -6 -31l-47 -114q-21 -51 -77 -51q-15 0 -31 7q-51 22 -51 76q0 18 6 32z" glyph-name="eacute" horiz-adv-x="514" unicode="é"/><glyph d="M485 321l-128 -125q-22 -21 -47 -21q-28 0 -48.5 21t-20.5 49q0 25 22 47l72 71q-13 2 -26 2q-50 0 -85 -35t-35 -85t35 -85.5t85 -35.5h89q30 0 48.5 -18.5t18.5 -48.5t-18.5 -49t-48.5 -19h-89q-108 0 -181.5 74t-73.5 182t73.5 181.5t181.5 73.5q109 0 185 -78 q20 -21 20 -46q0 -33 -29 -55zM327 779q-21 51 -77 51q-16 0 -31 -6q-51 -21 -51 -77q0 -16 6 -31l47 -114q21 -51 76 -51q16 0 32 7q51 22 51 76q0 18 -6 32z" glyph-name="egrave" horiz-adv-x="514" unicode="è"/><glyph d="M485 321l-128 -125q-22 -21 -47 -21q-28 0 -48.5 21t-20.5 49q0 25 22 47l72 71q-13 2 -26 2q-50 0 -85 -35t-35 -85t35 -85.5t85 -35.5h89q30 0 48.5 -18.5t18.5 -48.5t-18.5 -49t-48.5 -19h-89q-108 0 -181.5 74t-73.5 182t73.5 181.5t181.5 73.5q109 0 185 -78 q20 -21 20 -46q0 -33 -29 -55zM458 671q-76 75 -90 88q-33 30 -56 30q-21 0 -55 -30q-17 -15 -90 -88q-21 -21 -21 -47q0 -28 20.5 -48.5t48.5 -20.5q26 0 47 21l50 49l50 -49q21 -21 47 -21q28 0 49 20.5t21 48.5q0 26 -21 47z" glyph-name="ecircumflex" horiz-adv-x="514" unicode="ê"/><glyph d="M485 321l-128 -125q-22 -21 -47 -21q-28 0 -48.5 21t-20.5 49q0 25 22 47l72 71q-13 2 -26 2q-50 0 -85 -35t-35 -85t35 -85.5t85 -35.5h89q30 0 48.5 -18.5t18.5 -48.5t-18.5 -49t-48.5 -19h-89q-108 0 -181.5 74t-73.5 182t73.5 181.5t181.5 73.5q109 0 185 -78 q20 -21 20 -46q0 -33 -29 -55zM207 565q35 0 59 24t24 59q0 34 -24.5 58t-58.5 24t-58.5 -24t-24.5 -58q0 -35 24 -59t59 -24zM399 565q35 0 58.5 24t23.5 59q0 34 -24 58t-58 24q-35 0 -59 -23.5t-24 -58.5t24 -59t59 -24z" glyph-name="edieresis" horiz-adv-x="514" unicode="ë"/><glyph d="M189 58q0 -30 -19 -48.5t-49 -18.5t-48.5 18.5t-18.5 48.5v375q0 30 18.5 48.5t48.5 18.5q68 0 68 -67v-375zM71 779q21 51 76 51q17 0 32 -6q51 -21 51 -77q0 -16 -6 -31l-47 -114q-21 -51 -77 -51q-15 0 -31 7q-51 22 -51 76q0 18 6 32z" glyph-name="iacute" horiz-adv-x="190" unicode="í"/><glyph d="M189 58q0 -30 -19 -48.5t-49 -18.5t-48.5 18.5t-18.5 48.5v375q0 30 18.5 48.5t48.5 18.5q68 0 68 -67v-375zM127 779q-21 51 -77 51q-16 0 -31 -6q-51 -21 -51 -77q0 -16 6 -31l47 -114q21 -51 76 -51q16 0 32 7q51 22 51 76q0 18 -6 32z" glyph-name="igrave" horiz-adv-x="190" unicode="ì"/><glyph d="M189 58q0 -30 -19 -48.5t-49 -18.5t-48.5 18.5t-18.5 48.5v375q0 30 18.5 48.5t48.5 18.5q68 0 68 -67v-375zM268 671q-76 75 -90 88q-33 30 -56 30q-21 0 -55 -30q-17 -15 -90 -88q-21 -21 -21 -47q0 -28 20.5 -48.5t48.5 -20.5q26 0 47 21l50 49l50 -49q21 -21 47 -21 q28 0 49 20.5t21 48.5q0 26 -21 47z" glyph-name="icircumflex" horiz-adv-x="190" unicode="î"/><glyph d="M189 58q0 -30 -19 -48.5t-49 -18.5t-48.5 18.5t-18.5 48.5v375q0 30 18.5 48.5t48.5 18.5q68 0 68 -67v-375zM27 565q35 0 59 24t24 59q0 34 -24.5 58t-58.5 24t-58.5 -24t-24.5 -58q0 -35 24 -59t59 -24zM219 565q35 0 58.5 24t23.5 59q0 34 -24 58t-58 24 q-35 0 -59 -23.5t-24 -58.5t24 -59t59 -24z" glyph-name="idieresis" horiz-adv-x="190" unicode="ï"/><glyph d="M571 -229h-4q-92 0 -154 62t-62 154v47l-1 251q0 33 -23.5 56.5t-56.5 23.5q-34 0 -57.5 -23t-23.5 -57v-227q0 -30 -19 -48.5t-49 -18.5t-48.5 18.5t-18.5 48.5v227q0 91 62.5 153t153.5 62t153.5 -62t62.5 -153v-298q0 -34 23.5 -57.5t57.5 -23.5h4q30 0 49 -19t19 -49 t-19 -48.5t-49 -18.5zM117 687q42 47 93 47q27 0 69 -18l41 -19q3 0 4 1q21 24 49 24t49 -20.5t21 -48.5q0 -24 -19 -45q-42 -47 -92 -47q-24 0 -67.5 18.5l-43.5 18.5q-2 0 -3 -1q-22 -24 -50 -24q-27 0 -48 21t-21 48q0 25 18 45z" glyph-name="ntilde" horiz-adv-x="486" unicode="ñ"/><glyph d="M309 500q108 0 182 -73.5t74 -181.5t-74 -182t-182 -74t-181.5 74t-73.5 182t73.5 181.5t181.5 73.5zM309 365q-50 0 -85 -35t-35 -85t35 -85.5t85 -35.5t85.5 35.5t35.5 85.5t-35.5 85t-85.5 35zM261 779q21 51 76 51q17 0 32 -6q51 -21 51 -77q0 -16 -6 -31l-47 -114 q-21 -51 -77 -51q-15 0 -31 7q-51 22 -51 76q0 18 6 32z" glyph-name="oacute" horiz-adv-x="566" unicode="ó"/><glyph d="M309 500q108 0 182 -73.5t74 -181.5t-74 -182t-182 -74t-181.5 74t-73.5 182t73.5 181.5t181.5 73.5zM309 365q-50 0 -85 -35t-35 -85t35 -85.5t85 -35.5t85.5 35.5t35.5 85.5t-35.5 85t-85.5 35zM327 779q-21 51 -77 51q-16 0 -31 -6q-51 -21 -51 -77q0 -16 6 -31 l47 -114q21 -51 76 -51q16 0 32 7q51 22 51 76q0 18 -6 32z" glyph-name="ograve" horiz-adv-x="566" unicode="ò"/><glyph d="M309 500q108 0 182 -73.5t74 -181.5t-74 -182t-182 -74t-181.5 74t-73.5 182t73.5 181.5t181.5 73.5zM309 365q-50 0 -85 -35t-35 -85t35 -85.5t85 -35.5t85.5 35.5t35.5 85.5t-35.5 85t-85.5 35zM458 671q-76 75 -90 88q-33 30 -56 30q-21 0 -55 -30q-17 -15 -90 -88 q-21 -21 -21 -47q0 -28 20.5 -48.5t48.5 -20.5q26 0 47 21l50 49l50 -49q21 -21 47 -21q28 0 49 20.5t21 48.5q0 26 -21 47z" glyph-name="ocircumflex" horiz-adv-x="566" unicode="ô"/><glyph d="M309 500q108 0 182 -73.5t74 -181.5t-74 -182t-182 -74t-181.5 74t-73.5 182t73.5 181.5t181.5 73.5zM309 365q-50 0 -85 -35t-35 -85t35 -85.5t85 -35.5t85.5 35.5t35.5 85.5t-35.5 85t-85.5 35zM217 565q35 0 59 24t24 59q0 34 -24.5 58t-58.5 24t-58.5 -24t-24.5 -58 q0 -35 24 -59t59 -24zM409 565q35 0 58.5 24t23.5 59q0 34 -24 58t-58 24q-35 0 -59 -23.5t-24 -58.5t24 -59t59 -24z" glyph-name="odieresis" horiz-adv-x="566" unicode="ö"/><glyph d="M309 500q108 0 182 -73.5t74 -181.5t-74 -182t-182 -74t-181.5 74t-73.5 182t73.5 181.5t181.5 73.5zM309 365q-50 0 -85 -35t-35 -85t35 -85.5t85 -35.5t85.5 35.5t35.5 85.5t-35.5 85t-85.5 35zM167 687q42 47 93 47q27 0 69 -18l41 -19q3 0 4 1q21 24 49 24t49 -20.5 t21 -48.5q0 -24 -19 -45q-42 -47 -92 -47q-24 0 -67.5 18.5l-43.5 18.5q-2 0 -3 -1q-22 -24 -50 -24q-27 0 -48 21t-21 48q0 25 18 45z" glyph-name="otilde" horiz-adv-x="566" unicode="õ"/><glyph d="M189 431v-224q0 -34 23.5 -57.5t57.5 -23.5t57 23.5t23 57.5v226q0 30 19 48.5t49 18.5t48.5 -18.5t18.5 -48.5v-226q0 -91 -62 -153.5t-153 -62.5q-92 0 -154 62t-62 154v224q0 30 18.5 49t48.5 19t49 -19t19 -49zM251 779q21 51 76 51q17 0 32 -6q51 -21 51 -77 q0 -16 -6 -31l-47 -114q-21 -51 -77 -51q-15 0 -31 7q-51 22 -51 76q0 18 6 32z" glyph-name="uacute" horiz-adv-x="486" unicode="ú"/><glyph d="M189 431v-224q0 -34 23.5 -57.5t57.5 -23.5t57 23.5t23 57.5v226q0 30 19 48.5t49 18.5t48.5 -18.5t18.5 -48.5v-226q0 -91 -62 -153.5t-153 -62.5q-92 0 -154 62t-62 154v224q0 30 18.5 49t48.5 19t49 -19t19 -49zM307 779q-21 51 -77 51q-16 0 -31 -6q-51 -21 -51 -77 q0 -16 6 -31l47 -114q21 -51 76 -51q16 0 32 7q51 22 51 76q0 18 -6 32z" glyph-name="ugrave" horiz-adv-x="486" unicode="ù"/><glyph d="M189 431v-224q0 -34 23.5 -57.5t57.5 -23.5t57 23.5t23 57.5v226q0 30 19 48.5t49 18.5t48.5 -18.5t18.5 -48.5v-226q0 -91 -62 -153.5t-153 -62.5q-92 0 -154 62t-62 154v224q0 30 18.5 49t48.5 19t49 -19t19 -49zM428 671q-76 75 -90 88q-33 30 -56 30q-21 0 -55 -30 q-17 -15 -90 -88q-21 -21 -21 -47q0 -28 20.5 -48.5t48.5 -20.5q26 0 47 21l50 49l50 -49q21 -21 47 -21q28 0 49 20.5t21 48.5q0 26 -21 47z" glyph-name="ucircumflex" horiz-adv-x="486" unicode="û"/><glyph d="M189 431v-224q0 -34 23.5 -57.5t57.5 -23.5t57 23.5t23 57.5v226q0 30 19 48.5t49 18.5t48.5 -18.5t18.5 -48.5v-226q0 -91 -62 -153.5t-153 -62.5q-92 0 -154 62t-62 154v224q0 30 18.5 49t48.5 19t49 -19t19 -49zM177 565q35 0 59 24t24 59q0 34 -24.5 58t-58.5 24 t-58.5 -24t-24.5 -58q0 -35 24 -59t59 -24zM369 565q35 0 58.5 24t23.5 59q0 34 -24 58t-58 24q-35 0 -59 -23.5t-24 -58.5t24 -59t59 -24z" glyph-name="udieresis" horiz-adv-x="486" unicode="ü"/><glyph d="M262 601q0 43 -30.5 73.5t-73.5 30.5t-73.5 -30.5t-30.5 -73.5t30.5 -73.5t73.5 -30.5t73.5 30.5t30.5 73.5zM158 572q-29 0 -29 29t29 29t29 -29t-29 -29z" glyph-name="degree" horiz-adv-x="263" unicode="°"/><glyph d="M412 705q150 0 254 -104t104 -254t-104 -254t-254 -104t-254 104t-104 254t104 254t254 104zM412 570q-95 0 -159 -64t-64 -159q0 -94 64.5 -158.5t158.5 -64.5t158.5 64.5t64.5 158.5t-64.5 158.5t-158.5 64.5zM443 276q2 -39 40 -39q34 0 34 -34t-34 -34q-44 0 -77 32 t-31 76l1 28q0 13 10 23.5t23 10.5q25 0 43 17.5t18 42.5t-18 42.5t-43 17.5t-42.5 -17.5t-17.5 -42.5v-196q0 -33 -34 -33q-33 0 -33 33v196q0 53 37 90.5t90 37.5t90.5 -37.5t37.5 -90.5q0 -43 -26 -77.5t-68 -45.5z" glyph-name="registered" horiz-adv-x="769" unicode="®"/><glyph d="M412 705q150 0 254 -104t104 -254t-104 -254t-254 -104t-254 104t-104 254t104 254t254 104zM412 570q-95 0 -159 -64t-64 -159q0 -94 64.5 -158.5t158.5 -64.5t158.5 64.5t64.5 158.5t-64.5 158.5t-158.5 64.5zM423 168q-75 0 -127 52t-52 127t52 127t127 52 q33 0 33 -34q0 -33 -33 -33q-47 0 -79.5 -32.5t-32.5 -79.5t32.5 -79t79.5 -32q33 0 33 -34t-33 -34z" glyph-name="copyright" horiz-adv-x="769" unicode="©"/><glyph d="M54 499v172q0 34 34 34t34 -34v-26h84q34 0 34 -34t-34 -34h-84v-78q0 -17 11.5 -29t28.5 -12h63q17 0 28.5 12t11.5 29v35q0 45 31.5 76.5t76.5 31.5q40 0 70 -26q30 26 70 26q45 0 76.5 -31.5t31.5 -76.5v-113q0 -34 -34 -34q-33 0 -33 34v113q0 17 -12 28.5t-29 11.5 t-28.5 -11.5t-11.5 -28.5v-113q0 -34 -34 -34t-34 34v137q-12 16 -32 16q-17 0 -28.5 -11.5t-11.5 -28.5v-55q0 -44 -33 -67q-29 -21 -75 -21h-63q-45 0 -76.5 31.5t-31.5 76.5z" glyph-name="trademark" horiz-adv-x="621" unicode="™"/><glyph d="M1119 520q33 -44 33 -89q0 -56 -46 -99q5 -14 5 -26q0 -46 -66 -55q1 -8 1 -16q0 -73 -87 -90q-13 -79 -93 -79q-45 0 -97 23v-1q-4 2 -9 6l-75 -56q-48 -35 -83 -35q-79 0 -199 117v-1q-68 -31 -126 -31q-59 0 -105 32q-35 25 -55 63q-18 32 -14 42q-48 26 -74 61 q78 -1 105 36q-65 0 -83 93q99 53 131 109q-105 -10 -137 78q181 35 224 141q32 112 114 199q105 112 201 40q27 4 53 4q181 0 302 -175q50 -73 84 -175q8 -31 8 -70q0 -49 -14 -95q29 -20 51 -20q43 0 51 69zM870 503q-13 54 -42 105q-70 122 -208 211q-109 4 -156 -86 q-20 -38 -26 -91q-1 -40 -8 -74q13 2 29 2q75 0 101 -37q-5 -4 -17 -4q-22 0 -60 13q-32 13 -56 12q-9 -33 -21 -58q-28 -61 -66 -76q-6 -8 -25 -19q25 -120 67 -173q69 -86 100 -115q64 -59 120 -59t119 59q31 29 100 116q40 49 47 126q2 16 2 148zM844 536q-8 -5 -21 1 q-22 13 -42 13q-22 0 -52 -11q-37 -14 -59 -14q-12 0 -17 5q26 36 100 36q18 0 33.5 -2.5t26.5 -6.5q27 -9 31 -21zM822 446q-12 -12 -25 -12q-12 0 -22.5 10t-26.5 15q4 -8 4 -17q0 -14 -10 -24t-24 -10t-24 10t-10 24q0 12 8 21q-23 -9 -23 -24q0 -4 2 -9l-17 5 q5 12 13 20q18 21 46 22v-1q2 1 5 1q35 1 57 -11q6 -4 13 -4q14 0 24 13q2 -18 -17 -22q13 -11 27 -7zM565 434l-17 -5q1 4 1 8q0 22 -32 26q7 -9 7 -20q0 -14 -9.5 -23.5t-23.5 -9.5t-23.5 9.5t-9.5 23.5q0 9 4 16q-11 -4 -17 -11q-14 -18 -30 -18q-10 0 -19 7q8 0 21 13 q-16 3 -16 15q0 5 3 10q18 -14 26 -14q1 0 17.5 9t45.5 8q19 -2 32 -7q34 -12 40 -37zM692 215h-176q30 58 88 58q59 0 88 -58zM691 205q-9 -31 -31 -52q-25 -23 -55 -23q-31 0 -54.5 22t-32.5 53h10q29 -23 77 -23t72 23h14zM721 442q0 5 -5 5t-5 -5t5 -5t5 5zM718 428 q0 9 -9 9q-8 0 -8 -9t8 -9q9 0 9 9zM495 442q0 5 -6 5q-5 0 -5 -5t5 -5q6 0 6 5zM491 428q0 9 -9 9q-8 0 -8 -9t8 -9q9 0 9 9z" glyph-name="notequal" horiz-adv-x="1103" unicode="≠"/><glyph d="M169 772q0 -27 -28 -27q-27 0 -27 27q0 28 27 28q28 0 28 -28zM68 509q0 22 23 22h1q27 0 27 27v149q0 22 22 22q23 0 23 -22v-149q0 -30 -21 -50.5t-51 -20.5h-1q-23 0 -23 22zM324 670l-42 -42q-6 -6 -16 -6q-23 0 -23 22q0 8 8 16l23 23q-4 1 -8 1q-17 0 -28.5 -11.5 t-11.5 -28.5t11.5 -28.5t28.5 -11.5h29q23 0 23 -22q0 -23 -23 -23h-29q-36 0 -60.5 24.5t-24.5 60.5t24.5 60.5t60.5 24.5t61 -26q7 -7 7 -15q0 -11 -10 -18zM418 664v-39q0 -28 -19 -46.5t-47 -18.5q-22 0 -22 23q0 18 21.5 22t21.5 21v38q0 27 19 46t46 19q23 0 23 -22 q0 -21 -22 -22q-10 -1 -15.5 -7t-5.5 -14zM509 664v-39q0 -27 -19 -46t-46 -19q-22 0 -22 23q0 18 21 22t21 21l1 6v32q0 27 19 46t46 19q22 0 22 -22q0 -21 -21 -22q-10 -1 -16 -7t-6 -14zM620 772q0 -27 -28 -27q-27 0 -27 27q0 28 27 28q28 0 28 -28zM614 707 q0 22 -22 22q-23 0 -23 -22v-125q0 -22 23 -22q22 0 22 22v125zM718 684q-17 0 -28.5 -11.5t-11.5 -28.5q0 -39 40 -39q22 0 22 -23q0 -22 -22 -22q-35 0 -60 24.5t-25 59.5q0 36 24.5 60.5t60.5 24.5q22 0 22 -22q0 -23 -22 -23zM843 559q-35 0 -60 25t-25 60 q0 36 24.5 60.5t60.5 24.5t60.5 -24.5t24.5 -60.5v-62q0 -23 -23 -23q-22 0 -22 23v62q0 17 -11.5 28.5t-28.5 11.5t-28.5 -11.5t-11.5 -28.5t11.5 -28.5t28.5 -11.5q23 0 23 -22q0 -23 -23 -23zM188 183q-51 0 -85.5 35t-34.5 86q0 50 35 85t85 35t85 -35.5t35 -85.5v-88 q0 -32 -32 -32q-31 0 -31 32v88q0 24 -16.5 40.5t-40.5 16.5t-40 -16t-16 -40t16 -40.5t40 -16.5q32 0 32 -32t-32 -32zM397 487v-272q0 -31 -32 -31q-31 0 -31 31v272q0 31 31 31q32 0 32 -31zM542 424q51 0 85.5 -35t34.5 -86q0 -50 -35 -84.5t-85 -34.5t-84.5 35 t-34.5 85v184q0 31 31 31q32 0 32 -31v-184q0 -24 16 -40.5t40 -16.5t40.5 16t16.5 40t-16.5 40.5t-40.5 16.5q-31 0 -31 32t31 32zM808 183q-51 0 -85.5 35t-34.5 86q0 50 35 85t85 35t85 -35.5t35 -85.5v-88q0 -32 -32 -32t-32 32v88q0 24 -16 40.5t-40 16.5t-40 -16 t-16 -40t16 -40.5t40 -16.5q32 0 32 -32t-32 -32zM97 113q0 -14 -15 -14q-14 0 -14 14q0 15 14 15q15 0 15 -15zM94 79q0 12 -12 12t-12 -12v-67q0 -12 12 -12t12 12v67zM154 63q-3 -3 -3 -7v-21q0 -14 -10.5 -24t-24.5 -10q-12 0 -12 11q0 10 11.5 12t11.5 11v21 q0 35 35 35q12 0 12 -12q0 -5 -3 -9q-6 0 -17 -7zM282 91q19 0 32 -13.5t13 -32.5q0 -18 -13.5 -31.5t-31.5 -13.5q-19 0 -32 13t-13 32v70q0 12 11 12q12 0 12 -12v-70q0 -21 22 -21q21 0 21 21q0 22 -21 22q-12 0 -12 11q0 13 12 13zM413 59l-23 -23q-3 -3 -8 -3 q-12 0 -12 12q0 4 3 8l13 13q-2 1 -5 1q-21 0 -21 -22q0 -21 22 -21h15q12 0 12 -12t-12 -12h-15q-19 0 -32.5 13t-13.5 32t13.5 32.5t32.5 13.5t32 -14q4 -4 4 -9t-5 -9zM472 0q-19 0 -32 13t-13 32t13 32.5t32 13.5t32.5 -13.5t13.5 -32.5v-33q0 -12 -13 -12q-11 0 -11 12 v33q0 22 -22 22q-21 0 -21 -22q0 -21 21 -21q12 0 12 -12t-12 -12zM551 78v-39q0 -15 14 -15q15 0 15 15v40q0 12 12 12t12 -12v-40q0 -16 -11.5 -27.5t-27.5 -11.5t-27 11.5t-11 27.5v39q0 13 12 13t12 -13zM689 38q0 -16 -11 -27t-27 -11t-27 11t-11 27v61q0 12 12 12 t12 -12v-9h41q11 0 11 -12t-11 -12h-41v-28q0 -14 14 -14t14 14v2q0 12 12 12t12 -12v-2zM726 113q0 -14 -15 -14t-15 14q0 15 15 15t15 -15zM723 79q0 12 -12 12t-12 -12v-67q0 -12 12 -12t12 12v67zM798 39h-41v-27q0 -12 -12 -12t-12 12v76q0 16 11 27.5t27 11.5 t27 -11.5t11 -27.5v-1q0 -12 -12 -12t-12 12v1q0 15 -14 15t-14 -15v-25h41q12 0 12 -12t-12 -12zM843 78v-39q0 -15 14 -15t14 15v40q0 12 12 12t12 -12v-40q0 -16 -11 -27.5t-27 -11.5t-27 11.5t-11 27.5v39q0 13 12 13t12 -13zM929 114v-102q0 -12 -12 -12t-12 12v102 q0 12 12 12t12 -12z" glyph-name="infinity" horiz-adv-x="932" unicode="∞"/><glyph d="M122 135h250q30 0 48.5 -18.5t18.5 -48.5q0 -68 -67 -68h-250q-30 0 -48.5 19t-18.5 49t18.5 48.5t48.5 18.5zM179 229v57h-57q-30 0 -48.5 19t-18.5 49t18.5 48.5t48.5 18.5h57v57q0 67 68 67q30 0 48.5 -18.5t18.5 -48.5v-57h57q30 0 48.5 -18.5t18.5 -48.5 q0 -68 -67 -68h-57v-57q0 -30 -18.5 -48.5t-48.5 -18.5t-49 18.5t-19 48.5z" glyph-name="plusminus" horiz-adv-x="438" unicode="±"/><glyph d="M203 479l-88 -89q-29 -29 -29 -56q0 -22 29 -56q6 -7 88 -89q21 -21 48 -21t48 21t21 48q0 26 -21 47l-50 50l50 50q21 21 21 47q0 27 -21 48t-48 21t-48 -21zM122 135h168q30 0 48.5 -18.5t18.5 -48.5q0 -68 -67 -68h-168q-30 0 -48.5 19t-18.5 49t18.5 48.5t48.5 18.5z" glyph-name="lessequal" horiz-adv-x="357" unicode="≤"/><glyph d="M202 469l88 -89q29 -29 29 -56q0 -22 -29 -56q-6 -7 -88 -89q-21 -21 -48 -21t-48 21t-21 48q0 26 21 47l50 50l-50 50q-21 21 -21 47q0 27 21 48t48 21t48 -21zM122 135h168q30 0 48.5 -18.5t18.5 -48.5q0 -68 -67 -68h-168q-30 0 -48.5 19t-18.5 49t18.5 48.5 t48.5 18.5z" glyph-name="greaterequal" horiz-adv-x="357" unicode="≥"/><glyph d="M418 50q-62 -59 -148 -59q-43 0 -81 15v-169q0 -30 -18.5 -48.5t-48.5 -18.5t-49 18.5t-19 48.5v596q0 30 18.5 48.5t48.5 18.5q68 0 68 -67v-226q0 -34 23.5 -57.5t57.5 -23.5t57 23.5t23 57.5v226q0 30 19 48.5t49 18.5t48.5 -18.5t18.5 -48.5v-226q0 -34 23.5 -57.5 t57.5 -23.5h44q30 0 49 -19t19 -49t-19 -48.5t-49 -18.5h-44q-86 0 -148 59z" glyph-name="mu" horiz-adv-x="679" unicode="µ"/><glyph d="M418 50q-62 -59 -148 -59q-43 0 -81 15v-169q0 -30 -18.5 -48.5t-48.5 -18.5t-49 18.5t-19 48.5v596q0 30 18.5 48.5t48.5 18.5q68 0 68 -67v-226q0 -34 23.5 -57.5t57.5 -23.5t57 23.5t23 57.5v226q0 30 19 48.5t49 18.5t48.5 -18.5t18.5 -48.5v-226q0 -34 23.5 -57.5 t57.5 -23.5h44q30 0 49 -19t19 -49t-19 -48.5t-49 -18.5h-44q-86 0 -148 59z" glyph-name="mu" horiz-adv-x="679" unicode="μ"/><glyph d="M1119 520q33 -44 33 -89q0 -56 -46 -99q5 -14 5 -26q0 -46 -66 -55q1 -8 1 -16q0 -73 -87 -90q-13 -79 -93 -79q-45 0 -97 23v-1q-4 2 -9 6l-75 -56q-48 -35 -83 -35q-79 0 -199 117v-1q-68 -31 -126 -31q-59 0 -105 32q-35 25 -55 63q-18 32 -14 42q-48 26 -74 61 q78 -1 105 36q-65 0 -83 93q99 53 131 109q-105 -10 -137 78q181 35 224 141q32 112 114 199q105 112 201 40q27 4 53 4q181 0 302 -175q50 -73 84 -175q8 -31 8 -70q0 -49 -14 -95q29 -20 51 -20q43 0 51 69zM870 503q-13 54 -42 105q-70 122 -208 211q-109 4 -156 -86 q-20 -38 -26 -91q-1 -40 -8 -74q13 2 29 2q75 0 101 -37q-5 -4 -17 -4q-22 0 -60 13q-32 13 -56 12q-9 -33 -21 -58q-28 -61 -66 -76q-6 -8 -25 -19q25 -120 67 -173q69 -86 100 -115q64 -59 120 -59t119 59q31 29 100 116q40 49 47 126q2 16 2 148zM844 536q-8 -5 -21 1 q-22 13 -42 13q-22 0 -52 -11q-37 -14 -59 -14q-12 0 -17 5q26 36 100 36q18 0 33.5 -2.5t26.5 -6.5q27 -9 31 -21zM822 446q-12 -12 -25 -12q-12 0 -22.5 10t-26.5 15q4 -8 4 -17q0 -14 -10 -24t-24 -10t-24 10t-10 24q0 12 8 21q-23 -9 -23 -24q0 -4 2 -9l-17 5 q5 12 13 20q18 21 46 22v-1q2 1 5 1q35 1 57 -11q6 -4 13 -4q14 0 24 13q2 -18 -17 -22q13 -11 27 -7zM565 434l-17 -5q1 4 1 8q0 22 -32 26q7 -9 7 -20q0 -14 -9.5 -23.5t-23.5 -9.5t-23.5 9.5t-9.5 23.5q0 9 4 16q-11 -4 -17 -11q-14 -18 -30 -18q-10 0 -19 7q8 0 21 13 q-16 3 -16 15q0 5 3 10q18 -14 26 -14q1 0 17.5 9t45.5 8q19 -2 32 -7q34 -12 40 -37zM692 215h-176q30 58 88 58q59 0 88 -58zM691 205q-9 -31 -31 -52q-25 -23 -55 -23q-31 0 -54.5 22t-32.5 53h10q29 -23 77 -23t72 23h14zM721 442q0 5 -5 5t-5 -5t5 -5t5 5zM718 428 q0 9 -9 9q-8 0 -8 -9t8 -9q9 0 9 9zM495 442q0 5 -6 5q-5 0 -5 -5t5 -5q6 0 6 5zM491 428q0 9 -9 9q-8 0 -8 -9t8 -9q9 0 9 9z" glyph-name="partialdiff" horiz-adv-x="1103" unicode="∂"/><glyph d="M1119 520q33 -44 33 -89q0 -56 -46 -99q5 -14 5 -26q0 -46 -66 -55q1 -8 1 -16q0 -73 -87 -90q-13 -79 -93 -79q-45 0 -97 23v-1q-4 2 -9 6l-75 -56q-48 -35 -83 -35q-79 0 -199 117v-1q-68 -31 -126 -31q-59 0 -105 32q-35 25 -55 63q-18 32 -14 42q-48 26 -74 61 q78 -1 105 36q-65 0 -83 93q99 53 131 109q-105 -10 -137 78q181 35 224 141q32 112 114 199q105 112 201 40q27 4 53 4q181 0 302 -175q50 -73 84 -175q8 -31 8 -70q0 -49 -14 -95q29 -20 51 -20q43 0 51 69zM870 503q-13 54 -42 105q-70 122 -208 211q-109 4 -156 -86 q-20 -38 -26 -91q-1 -40 -8 -74q13 2 29 2q75 0 101 -37q-5 -4 -17 -4q-22 0 -60 13q-32 13 -56 12q-9 -33 -21 -58q-28 -61 -66 -76q-6 -8 -25 -19q25 -120 67 -173q69 -86 100 -115q64 -59 120 -59t119 59q31 29 100 116q40 49 47 126q2 16 2 148zM844 536q-8 -5 -21 1 q-22 13 -42 13q-22 0 -52 -11q-37 -14 -59 -14q-12 0 -17 5q26 36 100 36q18 0 33.5 -2.5t26.5 -6.5q27 -9 31 -21zM822 446q-12 -12 -25 -12q-12 0 -22.5 10t-26.5 15q4 -8 4 -17q0 -14 -10 -24t-24 -10t-24 10t-10 24q0 12 8 21q-23 -9 -23 -24q0 -4 2 -9l-17 5 q5 12 13 20q18 21 46 22v-1q2 1 5 1q35 1 57 -11q6 -4 13 -4q14 0 24 13q2 -18 -17 -22q13 -11 27 -7zM565 434l-17 -5q1 4 1 8q0 22 -32 26q7 -9 7 -20q0 -14 -9.5 -23.5t-23.5 -9.5t-23.5 9.5t-9.5 23.5q0 9 4 16q-11 -4 -17 -11q-14 -18 -30 -18q-10 0 -19 7q8 0 21 13 q-16 3 -16 15q0 5 3 10q18 -14 26 -14q1 0 17.5 9t45.5 8q19 -2 32 -7q34 -12 40 -37zM692 215h-176q30 58 88 58q59 0 88 -58zM691 205q-9 -31 -31 -52q-25 -23 -55 -23q-31 0 -54.5 22t-32.5 53h10q29 -23 77 -23t72 23h14zM721 442q0 5 -5 5t-5 -5t5 -5t5 5zM718 428 q0 9 -9 9q-8 0 -8 -9t8 -9q9 0 9 9zM495 442q0 5 -6 5q-5 0 -5 -5t5 -5q6 0 6 5zM491 428q0 9 -9 9q-8 0 -8 -9t8 -9q9 0 9 9z" glyph-name="summation" horiz-adv-x="1103" unicode="∑"/><glyph d="M372 570h-76v-512q0 -30 -18.5 -48.5t-48.5 -18.5t-49 18.5t-19 48.5v512h-38q-30 0 -49 19t-19 49t19 48.5t49 18.5h319q29 0 47 -19t18 -48v-580q0 -30 -18.5 -48.5t-48.5 -18.5t-49 18.5t-19 48.5v512z" glyph-name="product" horiz-adv-x="507" unicode="∏"/><glyph d="M372 363h-76v-305q0 -30 -18.5 -48.5t-48.5 -18.5t-49 18.5t-19 48.5v305h-38q-29 0 -48.5 19.5t-19.5 48.5q0 30 19 48.5t49 18.5h319q29 0 47 -19t18 -48v-373q0 -30 -18.5 -48.5t-48.5 -18.5t-49 18.5t-19 48.5v305z" glyph-name="pi" horiz-adv-x="507" unicode="π"/><glyph d="M314 570h-44q-34 0 -57.5 -23.5t-23.5 -57.5v-489q0 -91 -62.5 -153.5t-153.5 -62.5h-44q-30 0 -49 19t-19 49t19 48.5t49 18.5h44q34 0 57.5 23.5t23.5 57.5v489q0 91 62.5 153.5t153.5 62.5h44q30 0 48.5 -19t18.5 -49t-18.5 -48.5t-48.5 -18.5z" glyph-name="integral" horiz-adv-x="381" unicode="∫"/><glyph d="M1119 520q33 -44 33 -89q0 -56 -46 -99q5 -14 5 -26q0 -46 -66 -55q1 -8 1 -16q0 -73 -87 -90q-13 -79 -93 -79q-45 0 -97 23v-1q-4 2 -9 6l-75 -56q-48 -35 -83 -35q-79 0 -199 117v-1q-68 -31 -126 -31q-59 0 -105 32q-35 25 -55 63q-18 32 -14 42q-48 26 -74 61 q78 -1 105 36q-65 0 -83 93q99 53 131 109q-105 -10 -137 78q181 35 224 141q32 112 114 199q105 112 201 40q27 4 53 4q181 0 302 -175q50 -73 84 -175q8 -31 8 -70q0 -49 -14 -95q29 -20 51 -20q43 0 51 69zM870 503q-13 54 -42 105q-70 122 -208 211q-109 4 -156 -86 q-20 -38 -26 -91q-1 -40 -8 -74q13 2 29 2q75 0 101 -37q-5 -4 -17 -4q-22 0 -60 13q-32 13 -56 12q-9 -33 -21 -58q-28 -61 -66 -76q-6 -8 -25 -19q25 -120 67 -173q69 -86 100 -115q64 -59 120 -59t119 59q31 29 100 116q40 49 47 126q2 16 2 148zM844 536q-8 -5 -21 1 q-22 13 -42 13q-22 0 -52 -11q-37 -14 -59 -14q-12 0 -17 5q26 36 100 36q18 0 33.5 -2.5t26.5 -6.5q27 -9 31 -21zM822 446q-12 -12 -25 -12q-12 0 -22.5 10t-26.5 15q4 -8 4 -17q0 -14 -10 -24t-24 -10t-24 10t-10 24q0 12 8 21q-23 -9 -23 -24q0 -4 2 -9l-17 5 q5 12 13 20q18 21 46 22v-1q2 1 5 1q35 1 57 -11q6 -4 13 -4q14 0 24 13q2 -18 -17 -22q13 -11 27 -7zM565 434l-17 -5q1 4 1 8q0 22 -32 26q7 -9 7 -20q0 -14 -9.5 -23.5t-23.5 -9.5t-23.5 9.5t-9.5 23.5q0 9 4 16q-11 -4 -17 -11q-14 -18 -30 -18q-10 0 -19 7q8 0 21 13 q-16 3 -16 15q0 5 3 10q18 -14 26 -14q1 0 17.5 9t45.5 8q19 -2 32 -7q34 -12 40 -37zM692 215h-176q30 58 88 58q59 0 88 -58zM691 205q-9 -31 -31 -52q-25 -23 -55 -23q-31 0 -54.5 22t-32.5 53h10q29 -23 77 -23t72 23h14zM721 442q0 5 -5 5t-5 -5t5 -5t5 5zM718 428 q0 9 -9 9q-8 0 -8 -9t8 -9q9 0 9 9zM495 442q0 5 -6 5q-5 0 -5 -5t5 -5q6 0 6 5zM491 428q0 9 -9 9q-8 0 -8 -9t8 -9q9 0 9 9z" glyph-name="Omega" horiz-adv-x="1103" unicode="Ω"/><glyph d="M1119 520q33 -44 33 -89q0 -56 -46 -99q5 -14 5 -26q0 -46 -66 -55q1 -8 1 -16q0 -73 -87 -90q-13 -79 -93 -79q-45 0 -97 23v-1q-4 2 -9 6l-75 -56q-48 -35 -83 -35q-79 0 -199 117v-1q-68 -31 -126 -31q-59 0 -105 32q-35 25 -55 63q-18 32 -14 42q-48 26 -74 61 q78 -1 105 36q-65 0 -83 93q99 53 131 109q-105 -10 -137 78q181 35 224 141q32 112 114 199q105 112 201 40q27 4 53 4q181 0 302 -175q50 -73 84 -175q8 -31 8 -70q0 -49 -14 -95q29 -20 51 -20q43 0 51 69zM870 503q-13 54 -42 105q-70 122 -208 211q-109 4 -156 -86 q-20 -38 -26 -91q-1 -40 -8 -74q13 2 29 2q75 0 101 -37q-5 -4 -17 -4q-22 0 -60 13q-32 13 -56 12q-9 -33 -21 -58q-28 -61 -66 -76q-6 -8 -25 -19q25 -120 67 -173q69 -86 100 -115q64 -59 120 -59t119 59q31 29 100 116q40 49 47 126q2 16 2 148zM844 536q-8 -5 -21 1 q-22 13 -42 13q-22 0 -52 -11q-37 -14 -59 -14q-12 0 -17 5q26 36 100 36q18 0 33.5 -2.5t26.5 -6.5q27 -9 31 -21zM822 446q-12 -12 -25 -12q-12 0 -22.5 10t-26.5 15q4 -8 4 -17q0 -14 -10 -24t-24 -10t-24 10t-10 24q0 12 8 21q-23 -9 -23 -24q0 -4 2 -9l-17 5 q5 12 13 20q18 21 46 22v-1q2 1 5 1q35 1 57 -11q6 -4 13 -4q14 0 24 13q2 -18 -17 -22q13 -11 27 -7zM565 434l-17 -5q1 4 1 8q0 22 -32 26q7 -9 7 -20q0 -14 -9.5 -23.5t-23.5 -9.5t-23.5 9.5t-9.5 23.5q0 9 4 16q-11 -4 -17 -11q-14 -18 -30 -18q-10 0 -19 7q8 0 21 13 q-16 3 -16 15q0 5 3 10q18 -14 26 -14q1 0 17.5 9t45.5 8q19 -2 32 -7q34 -12 40 -37zM692 215h-176q30 58 88 58q59 0 88 -58zM691 205q-9 -31 -31 -52q-25 -23 -55 -23q-31 0 -54.5 22t-32.5 53h10q29 -23 77 -23t72 23h14zM721 442q0 5 -5 5t-5 -5t5 -5t5 5zM718 428 q0 9 -9 9q-8 0 -8 -9t8 -9q9 0 9 9zM495 442q0 5 -6 5q-5 0 -5 -5t5 -5q6 0 6 5zM491 428q0 9 -9 9q-8 0 -8 -9t8 -9q9 0 9 9z" glyph-name="Omega" horiz-adv-x="1103" unicode="Ω"/><glyph d="M682 400q0 -34 -22.5 -56.5t-56.5 -22.5q-33 0 -56 23t-23 56q0 5 1 12q-10 -1 -25 4t-15 14q0 3 5 1q6 -1 12 -1q14 0 29 8q-37 13 -37 25q0 6 5 15q6 -15 19 -15q6 0 14 4q28 15 72 13q33 -1 55.5 -24t22.5 -56zM1309 497q39 -41 39 -84q0 -53 -54 -95q6 -13 6 -24 q0 -44 -79 -53q1 -8 1 -16q0 -69 -105 -85q-14 -75 -110 -75q-54 0 -116 21v-1q-5 3 -11 6l-90 -54q-55 -32 -99 -32q-65 0 -165 61q-82 50 -141 110q-96 -68 -170 -68q-46 0 -77 28q-46 24 -46 61q0 11 3 19q-58 25 -89 58q93 0 126 35q-78 -1 -99 88q118 51 156 104 q-125 -9 -163 75q216 33 268 134q42 117 136 215q83 86 160 86q40 0 79 -23q248 -4 412 -193q68 -79 114 -187q9 -30 9 -67q0 -47 -17 -90q35 -20 62 -20q51 0 60 66zM1022 481q-17 70 -53 129q-87 143 -256 210q-193 -28 -217 -207q-25 -164 -133 -219q-9 -4 -30 -10 q20 -77 84 -152q55 -67 130 -116.5t144 -49.5q68 0 142 50q50 34 120 104q48 48 62 120q7 37 7 141zM889 528q-3 -1 -5 -1q-6 0 -12 4q-20 14 -41 14q-13 0 -38 -5.5t-39 -5.5q-15 0 -20 5q19 22 64 22q40 0 68 -13q21 -10 23 -20zM897 431q5 2 5 -1q0 -9 -15 -14t-25 -4 v-12q0 -34 -22.5 -56.5t-56.5 -22.5q-33 0 -56 23t-23 56t23 56t56 24q44 2 72 -13q8 -4 14 -4q13 0 19 15q6 -9 6 -15q0 -21 -37 -25q15 -8 29 -8q5 0 11 1zM669 545q-6 -6 -24 -6q-12 0 -34.5 4.5t-34.5 4.5q-24 0 -45 -16q-9 -7 -17 -4q3 16 43 29q26 8 53 8q40 0 59 -20 zM786 207h-188q32 55 93 55q64 0 95 -55zM784 197q-9 -30 -34.5 -51t-56.5 -21q-32 0 -57.5 20.5t-35.5 51.5h11q31 -22 82 -22t77 22h14zM786 447q0 14 -14 14q-15 0 -15 -14t15 -14q14 0 14 14zM740 433q0 8 -8 8t-8 -8t8 -8t8 8zM783 398q0 26 -26 26t-26 -26t26 -26 t26 26zM603 447q0 14 -14 14t-14 -14t14 -14t14 14zM557 433q0 8 -8 8q-7 0 -7 -8t7 -8q8 0 8 8zM601 398q0 26 -26 26t-26 -26t26 -26t26 26z" glyph-name="logicalnot" horiz-adv-x="1351" unicode="¬"/><glyph d="M1126 550q33 -44 33 -89q0 -56 -45 -99q5 -14 5 -26q0 -46 -66 -55q1 -8 1 -16q0 -73 -88 -90q-12 -79 -92 -79q-45 0 -98 23l1 -1q-5 2 -10 6l-75 -56q-47 -35 -82 -35q-80 0 -200 117l1 -1q-68 -31 -126 -31q-60 0 -105 32q-35 25 -56 63q-17 32 -13 42q-49 26 -74 61 q77 -1 105 36q-65 0 -83 93q98 53 130 109q-104 -10 -136 78q181 35 224 141q32 112 114 199q104 112 200 40q28 4 54 4q181 0 301 -175q51 -73 85 -175q7 -31 7 -70q0 -49 -14 -95q30 -20 52 -20q43 0 50 69zM878 533q-14 54 -43 105q-70 122 -207 211q-109 4 -157 -86 q-19 -38 -25 -91q-2 -40 -9 -74q14 2 30 2q74 0 101 -37q-6 -4 -17 -4q-23 0 -60 13q-33 13 -57 12q-9 -33 -20 -58q-28 -61 -66 -76q-6 -8 -25 -19q24 -120 67 -173q68 -86 100 -115q63 -59 120 -59q56 0 118 59q31 29 101 116q39 49 47 126q2 16 2 148zM852 566 q-9 -5 -21 1q-23 13 -42 13q-22 0 -52 -11q-37 -14 -59 -14q-12 0 -18 5q27 36 100 36q19 0 34.5 -2.5t26.5 -6.5q27 -9 31 -21zM829 476q-11 -12 -24 -12q-12 0 -22.5 10.5t-28.5 14.5q3 -6 3 -13q0 -31 -31 -31t-31 31q0 10 5 18q-24 -10 -24 -25q0 -4 3 -9l-17 5 q5 12 12 20q19 21 46 22v-1q3 1 6 1q35 1 57 -11q6 -4 13 -4q13 0 23 13q3 -18 -17 -22q14 -11 27 -7zM572 464l-17 -5q3 5 3 10q0 19 -27 24q5 -8 5 -17q0 -31 -31 -31t-31 31q0 7 3 13q-18 -4 -29.5 -15t-24.5 -11q-11 0 -21 8q13 -4 22 9q-14 3 -14 17q0 4 1 8 q10 -13 24 -13q7 0 13 4q22 12 57 11q5 0 10 -2q52 -7 57 -41zM700 245h-176q30 58 87 58q59 0 89 -58zM698 235q-8 -31 -31.5 -53t-53.5 -22q-31 0 -54.5 22t-32.5 53h9q30 -23 78 -23t72 23h13z" glyph-name="radical" horiz-adv-x="1174" unicode="√"/><glyph d="M499 -379q30 0 49 -18.5t19 -48.5t-19 -49t-49 -19h-229q-91 0 -153.5 62.5t-62.5 153.5v11q0 107 73.5 181.5t180.5 74.5h87q14 0 24 10.5t10 24.5v241q0 50 -35 85t-85 35t-85 -35t-35 -85t35 -85.5t85 -35.5q30 0 49 -18.5t19 -48.5t-19 -49t-49 -19q-108 0 -181.5 74 t-73.5 182t73.5 181.5t181.5 73.5t181.5 -73.5t73.5 -181.5v-241q0 -71 -49.5 -120.5t-119.5 -49.5h-86q-50 0 -85 -35.5t-35 -85.5v-11q0 -34 23.5 -57.5t57.5 -23.5h229z" glyph-name="approxequal" unicode="≈"/><glyph d="M499 -379q30 0 49 -18.5t19 -48.5t-19 -49t-49 -19h-229q-91 0 -153.5 62.5t-62.5 153.5v11q0 107 73.5 181.5t180.5 74.5h87q14 0 24 10.5t10 24.5v241q0 50 -35 85t-85 35t-85 -35t-35 -85t35 -85.5t85 -35.5q30 0 49 -18.5t19 -48.5t-19 -49t-49 -19q-108 0 -181.5 74 t-73.5 182t73.5 181.5t181.5 73.5t181.5 -73.5t73.5 -181.5v-241q0 -71 -49.5 -120.5t-119.5 -49.5h-86q-50 0 -85 -35.5t-35 -85.5v-11q0 -34 23.5 -57.5t57.5 -23.5h229z" glyph-name="approxequal" unicode="⋲"/><glyph d="M1119 520q33 -44 33 -89q0 -56 -46 -99q5 -14 5 -26q0 -46 -66 -55q1 -8 1 -16q0 -73 -87 -90q-13 -79 -93 -79q-45 0 -97 23v-1q-4 2 -9 6l-75 -56q-48 -35 -83 -35q-79 0 -199 117v-1q-68 -31 -126 -31q-59 0 -105 32q-35 25 -55 63q-18 32 -14 42q-48 26 -74 61 q78 -1 105 36q-65 0 -83 93q99 53 131 109q-105 -10 -137 78q181 35 224 141q32 112 114 199q105 112 201 40q27 4 53 4q181 0 302 -175q50 -73 84 -175q8 -31 8 -70q0 -49 -14 -95q29 -20 51 -20q43 0 51 69zM870 503q-13 54 -42 105q-70 122 -208 211q-109 4 -156 -86 q-20 -38 -26 -91q-1 -40 -8 -74q13 2 29 2q75 0 101 -37q-5 -4 -17 -4q-22 0 -60 13q-32 13 -56 12q-9 -33 -21 -58q-28 -61 -66 -76q-6 -8 -25 -19q25 -120 67 -173q69 -86 100 -115q64 -59 120 -59t119 59q31 29 100 116q40 49 47 126q2 16 2 148zM844 536q-8 -5 -21 1 q-22 13 -42 13q-22 0 -52 -11q-37 -14 -59 -14q-12 0 -17 5q26 36 100 36q18 0 33.5 -2.5t26.5 -6.5q27 -9 31 -21zM822 446q-12 -12 -25 -12q-12 0 -22.5 10t-26.5 15q4 -8 4 -17q0 -14 -10 -24t-24 -10t-24 10t-10 24q0 12 8 21q-23 -9 -23 -24q0 -4 2 -9l-17 5 q5 12 13 20q18 21 46 22v-1q2 1 5 1q35 1 57 -11q6 -4 13 -4q14 0 24 13q2 -18 -17 -22q13 -11 27 -7zM565 434l-17 -5q1 4 1 8q0 22 -32 26q7 -9 7 -20q0 -14 -9.5 -23.5t-23.5 -9.5t-23.5 9.5t-9.5 23.5q0 9 4 16q-11 -4 -17 -11q-14 -18 -30 -18q-10 0 -19 7q8 0 21 13 q-16 3 -16 15q0 5 3 10q18 -14 26 -14q1 0 17.5 9t45.5 8q19 -2 32 -7q34 -12 40 -37zM692 215h-176q30 58 88 58q59 0 88 -58zM691 205q-9 -31 -31 -52q-25 -23 -55 -23q-31 0 -54.5 22t-32.5 53h10q29 -23 77 -23t72 23h14zM721 442q0 5 -5 5t-5 -5t5 -5t5 5zM718 428 q0 9 -9 9q-8 0 -8 -9t8 -9q9 0 9 9zM495 442q0 5 -6 5q-5 0 -5 -5t5 -5q6 0 6 5zM491 428q0 9 -9 9q-8 0 -8 -9t8 -9q9 0 9 9z" glyph-name="Delta" horiz-adv-x="1103" unicode="Δ"/><glyph d="M1119 520q33 -44 33 -89q0 -56 -46 -99q5 -14 5 -26q0 -46 -66 -55q1 -8 1 -16q0 -73 -87 -90q-13 -79 -93 -79q-45 0 -97 23v-1q-4 2 -9 6l-75 -56q-48 -35 -83 -35q-79 0 -199 117v-1q-68 -31 -126 -31q-59 0 -105 32q-35 25 -55 63q-18 32 -14 42q-48 26 -74 61 q78 -1 105 36q-65 0 -83 93q99 53 131 109q-105 -10 -137 78q181 35 224 141q32 112 114 199q105 112 201 40q27 4 53 4q181 0 302 -175q50 -73 84 -175q8 -31 8 -70q0 -49 -14 -95q29 -20 51 -20q43 0 51 69zM870 503q-13 54 -42 105q-70 122 -208 211q-109 4 -156 -86 q-20 -38 -26 -91q-1 -40 -8 -74q13 2 29 2q75 0 101 -37q-5 -4 -17 -4q-22 0 -60 13q-32 13 -56 12q-9 -33 -21 -58q-28 -61 -66 -76q-6 -8 -25 -19q25 -120 67 -173q69 -86 100 -115q64 -59 120 -59t119 59q31 29 100 116q40 49 47 126q2 16 2 148zM844 536q-8 -5 -21 1 q-22 13 -42 13q-22 0 -52 -11q-37 -14 -59 -14q-12 0 -17 5q26 36 100 36q18 0 33.5 -2.5t26.5 -6.5q27 -9 31 -21zM822 446q-12 -12 -25 -12q-12 0 -22.5 10t-26.5 15q4 -8 4 -17q0 -14 -10 -24t-24 -10t-24 10t-10 24q0 12 8 21q-23 -9 -23 -24q0 -4 2 -9l-17 5 q5 12 13 20q18 21 46 22v-1q2 1 5 1q35 1 57 -11q6 -4 13 -4q14 0 24 13q2 -18 -17 -22q13 -11 27 -7zM565 434l-17 -5q1 4 1 8q0 22 -32 26q7 -9 7 -20q0 -14 -9.5 -23.5t-23.5 -9.5t-23.5 9.5t-9.5 23.5q0 9 4 16q-11 -4 -17 -11q-14 -18 -30 -18q-10 0 -19 7q8 0 21 13 q-16 3 -16 15q0 5 3 10q18 -14 26 -14q1 0 17.5 9t45.5 8q19 -2 32 -7q34 -12 40 -37zM692 215h-176q30 58 88 58q59 0 88 -58zM691 205q-9 -31 -31 -52q-25 -23 -55 -23q-31 0 -54.5 22t-32.5 53h10q29 -23 77 -23t72 23h14zM721 442q0 5 -5 5t-5 -5t5 -5t5 5zM718 428 q0 9 -9 9q-8 0 -8 -9t8 -9q9 0 9 9zM495 442q0 5 -6 5q-5 0 -5 -5t5 -5q6 0 6 5zM491 428q0 9 -9 9q-8 0 -8 -9t8 -9q9 0 9 9z" glyph-name="Delta" horiz-adv-x="1103" unicode="∆"/><glyph d="M650 -229h-5q-91 0 -153 62.5t-62 153.5v237q-57 -30 -121 -30q-30 0 -48.5 19t-18.5 49t18.5 48.5t48.5 18.5q50 0 85.5 35.5t35.5 85.5t-35.5 85t-85.5 35t-85 -35t-35 -85v-392q0 -30 -19 -48.5t-49 -18.5t-48.5 18.5t-18.5 48.5v392q0 108 73.5 181.5t181.5 73.5 t182 -73.5t74 -181.5v-463q0 -34 23 -57.5t57 -23.5h5q30 0 48.5 -19t18.5 -49q0 -29 -19 -48t-48 -19zM327 979q-21 51 -77 51q-16 0 -31 -6q-51 -21 -51 -77q0 -16 6 -31l47 -114q21 -51 76 -51q16 0 32 7q51 22 51 76q0 18 -6 32z" glyph-name="Agrave" unicode="À"/><glyph d="M650 -229h-5q-91 0 -153 62.5t-62 153.5v237q-57 -30 -121 -30q-30 0 -48.5 19t-18.5 49t18.5 48.5t48.5 18.5q50 0 85.5 35.5t35.5 85.5t-35.5 85t-85.5 35t-85 -35t-35 -85v-392q0 -30 -19 -48.5t-49 -18.5t-48.5 18.5t-18.5 48.5v392q0 108 73.5 181.5t181.5 73.5 t182 -73.5t74 -181.5v-463q0 -34 23 -57.5t57 -23.5h5q30 0 48.5 -19t18.5 -49q0 -29 -19 -48t-48 -19zM157 887q42 47 93 47q27 0 69 -18l41 -19q3 0 4 1q21 24 49 24t49 -20.5t21 -48.5q0 -24 -19 -45q-42 -47 -92 -47q-24 0 -67.5 18.5l-43.5 18.5q-2 0 -3 -1 q-22 -24 -50 -24q-27 0 -48 21t-21 48q0 25 18 45z" glyph-name="Atilde" unicode="Ã"/><glyph d="M412 705q150 0 254 -104t104 -254t-104 -254t-254 -104t-254 104t-104 254t104 254t254 104zM412 570q-95 0 -159 -64t-64 -159q0 -94 64.5 -158.5t158.5 -64.5t158.5 64.5t64.5 158.5t-64.5 158.5t-158.5 64.5zM267 887q42 47 93 47q27 0 69 -18l41 -19q3 0 4 1 q21 24 49 24t49 -20.5t21 -48.5q0 -24 -19 -45q-42 -47 -92 -47q-24 0 -67.5 18.5l-43.5 18.5q-2 0 -3 -1q-22 -24 -50 -24q-27 0 -48 21t-21 48q0 25 18 45z" glyph-name="Otilde" horiz-adv-x="769" unicode="Õ"/><glyph d="M1119 520q33 -44 33 -89q0 -56 -46 -99q5 -14 5 -26q0 -46 -66 -55q1 -8 1 -16q0 -73 -87 -90q-13 -79 -93 -79q-45 0 -97 23v-1q-4 2 -9 6l-75 -56q-48 -35 -83 -35q-79 0 -199 117v-1q-68 -31 -126 -31q-59 0 -105 32q-35 25 -55 63q-18 32 -14 42q-48 26 -74 61 q78 -1 105 36q-65 0 -83 93q99 53 131 109q-105 -10 -137 78q181 35 224 141q32 112 114 199q105 112 201 40q27 4 53 4q181 0 302 -175q50 -73 84 -175q8 -31 8 -70q0 -49 -14 -95q29 -20 51 -20q43 0 51 69zM870 503q-13 54 -42 105q-70 122 -208 211q-109 4 -156 -86 q-20 -38 -26 -91q-1 -40 -8 -74q13 2 29 2q75 0 101 -37q-5 -4 -17 -4q-22 0 -60 13q-32 13 -56 12q-9 -33 -21 -58q-28 -61 -66 -76q-6 -8 -25 -19q25 -120 67 -173q69 -86 100 -115q64 -59 120 -59t119 59q31 29 100 116q40 49 47 126q2 16 2 148zM844 536q-8 -5 -21 1 q-22 13 -42 13q-22 0 -52 -11q-37 -14 -59 -14q-12 0 -17 5q26 36 100 36q18 0 33.5 -2.5t26.5 -6.5q27 -9 31 -21zM822 446q-12 -12 -25 -12q-12 0 -22.5 10t-26.5 15q4 -8 4 -17q0 -14 -10 -24t-24 -10t-24 10t-10 24q0 12 8 21q-23 -9 -23 -24q0 -4 2 -9l-17 5 q5 12 13 20q18 21 46 22v-1q2 1 5 1q35 1 57 -11q6 -4 13 -4q14 0 24 13q2 -18 -17 -22q13 -11 27 -7zM565 434l-17 -5q1 4 1 8q0 22 -32 26q7 -9 7 -20q0 -14 -9.5 -23.5t-23.5 -9.5t-23.5 9.5t-9.5 23.5q0 9 4 16q-11 -4 -17 -11q-14 -18 -30 -18q-10 0 -19 7q8 0 21 13 q-16 3 -16 15q0 5 3 10q18 -14 26 -14q1 0 17.5 9t45.5 8q19 -2 32 -7q34 -12 40 -37zM692 215h-176q30 58 88 58q59 0 88 -58zM691 205q-9 -31 -31 -52q-25 -23 -55 -23q-31 0 -54.5 22t-32.5 53h10q29 -23 77 -23t72 23h14zM721 442q0 5 -5 5t-5 -5t5 -5t5 5zM718 428 q0 9 -9 9q-8 0 -8 -9t8 -9q9 0 9 9zM495 442q0 5 -6 5q-5 0 -5 -5t5 -5q6 0 6 5zM491 428q0 9 -9 9q-8 0 -8 -9t8 -9q9 0 9 9z" glyph-name="divide" horiz-adv-x="1103" unicode="÷"/><glyph d="M1119 520q33 -44 33 -89q0 -56 -46 -99q5 -14 5 -26q0 -46 -66 -55q1 -8 1 -16q0 -73 -87 -90q-13 -79 -93 -79q-45 0 -97 23v-1q-4 2 -9 6l-75 -56q-48 -35 -83 -35q-79 0 -199 117v-1q-68 -31 -126 -31q-59 0 -105 32q-35 25 -55 63q-18 32 -14 42q-48 26 -74 61 q78 -1 105 36q-65 0 -83 93q99 53 131 109q-105 -10 -137 78q181 35 224 141q32 112 114 199q105 112 201 40q27 4 53 4q181 0 302 -175q50 -73 84 -175q8 -31 8 -70q0 -49 -14 -95q29 -20 51 -20q43 0 51 69zM870 503q-13 54 -42 105q-70 122 -208 211q-109 4 -156 -86 q-20 -38 -26 -91q-1 -40 -8 -74q13 2 29 2q75 0 101 -37q-5 -4 -17 -4q-22 0 -60 13q-32 13 -56 12q-9 -33 -21 -58q-28 -61 -66 -76q-6 -8 -25 -19q25 -120 67 -173q69 -86 100 -115q64 -59 120 -59t119 59q31 29 100 116q40 49 47 126q2 16 2 148zM844 536q-8 -5 -21 1 q-22 13 -42 13q-22 0 -52 -11q-37 -14 -59 -14q-12 0 -17 5q26 36 100 36q18 0 33.5 -2.5t26.5 -6.5q27 -9 31 -21zM822 446q-12 -12 -25 -12q-12 0 -22.5 10t-26.5 15q4 -8 4 -17q0 -14 -10 -24t-24 -10t-24 10t-10 24q0 12 8 21q-23 -9 -23 -24q0 -4 2 -9l-17 5 q5 12 13 20q18 21 46 22v-1q2 1 5 1q35 1 57 -11q6 -4 13 -4q14 0 24 13q2 -18 -17 -22q13 -11 27 -7zM565 434l-17 -5q1 4 1 8q0 22 -32 26q7 -9 7 -20q0 -14 -9.5 -23.5t-23.5 -9.5t-23.5 9.5t-9.5 23.5q0 9 4 16q-11 -4 -17 -11q-14 -18 -30 -18q-10 0 -19 7q8 0 21 13 q-16 3 -16 15q0 5 3 10q18 -14 26 -14q1 0 17.5 9t45.5 8q19 -2 32 -7q34 -12 40 -37zM692 215h-176q30 58 88 58q59 0 88 -58zM691 205q-9 -31 -31 -52q-25 -23 -55 -23q-31 0 -54.5 22t-32.5 53h10q29 -23 77 -23t72 23h14zM721 442q0 5 -5 5t-5 -5t5 -5t5 5zM718 428 q0 9 -9 9q-8 0 -8 -9t8 -9q9 0 9 9zM495 442q0 5 -6 5q-5 0 -5 -5t5 -5q6 0 6 5zM491 428q0 9 -9 9q-8 0 -8 -9t8 -9q9 0 9 9z" glyph-name="lozenge" horiz-adv-x="1103" unicode="◊"/><glyph d="M270 -9q-92 0 -154 62t-62 154v226q0 30 18.5 48.5t48.5 18.5q68 0 68 -67v-226q0 -34 23.5 -57.5t57.5 -23.5t57 23.5t23 57.5v226q0 30 19 48.5t49 18.5t48.5 -18.5t18.5 -48.5v-446q0 -91 -62.5 -153.5t-153.5 -62.5h-4q-30 0 -49 18.5t-19 48.5t19 49t49 19h4 q33 0 57 24t24 57v19q-38 -15 -80 -15zM177 565q35 0 59 24t24 59q0 34 -24.5 58t-58.5 24t-58.5 -24t-24.5 -58q0 -35 24 -59t59 -24zM369 565q35 0 58.5 24t23.5 59q0 34 -24 58t-58 24q-35 0 -59 -23.5t-24 -58.5t24 -59t59 -24z" glyph-name="ydieresis" horiz-adv-x="486" unicode="ÿ"/><glyph d="M485 207q0 -91 -62 -153.5t-153 -62.5q-92 0 -154 62t-62 154v10q0 30 18.5 48.5t48.5 18.5t49 -18.5t19 -48.5v-10q0 -34 23.5 -57.5t57.5 -23.5t57 23.5t23 57.5v96q-38 -16 -80 -16q-92 0 -154 62t-62 154v135q0 30 18.5 48.5t48.5 18.5t49 -18.5t19 -48.5v-135 q0 -34 23.5 -57.5t57.5 -23.5t57 23.5t23 57.5v0v135q0 29 19.5 48t48.5 19q30 0 48.5 -18.5t18.5 -48.5v-431zM177 765q35 0 59 24t24 59q0 34 -24.5 58t-58.5 24t-58.5 -24t-24.5 -58q0 -35 24 -59t59 -24zM369 765q35 0 58.5 24t23.5 59q0 34 -24 58t-58 24 q-35 0 -59 -23.5t-24 -58.5t24 -59t59 -24z" glyph-name="Ydieresis" horiz-adv-x="486" unicode="Ÿ"/><glyph d="M650 -229h-5q-91 0 -153 62.5t-62 153.5v237q-57 -30 -121 -30q-30 0 -48.5 19t-18.5 49t18.5 48.5t48.5 18.5q50 0 85.5 35.5t35.5 85.5t-35.5 85t-85.5 35t-85 -35t-35 -85v-392q0 -30 -19 -48.5t-49 -18.5t-48.5 18.5t-18.5 48.5v392q0 108 73.5 181.5t181.5 73.5 t182 -73.5t74 -181.5v-463q0 -34 23 -57.5t57 -23.5h5q30 0 48.5 -19t18.5 -49q0 -29 -19 -48t-48 -19zM468 871q-76 75 -90 88q-33 30 -56 30q-21 0 -55 -30q-17 -15 -90 -88q-21 -21 -21 -47q0 -28 20.5 -48.5t48.5 -20.5q26 0 47 21l50 49l50 -49q21 -21 47 -21 q28 0 49 20.5t21 48.5q0 26 -21 47z" glyph-name="Acircumflex" unicode="Â"/><glyph d="M412 -11q-150 0 -254 104t-104 254t104 254t254 104q30 0 49 -18.5t19 -48.5t-19 -49t-49 -19q-72 0 -130 -41.5t-81 -109.5h211q30 0 49 -18.5t19 -48.5t-19 -49t-49 -19h-214q21 -71 80.5 -115.5t133.5 -44.5q30 0 49 -19t19 -49t-19 -48.5t-49 -18.5zM458 871 q-76 75 -90 88q-33 30 -56 30q-21 0 -55 -30q-17 -15 -90 -88q-21 -21 -21 -47q0 -28 20.5 -48.5t48.5 -20.5q26 0 47 21l50 49l50 -49q21 -21 47 -21q28 0 49 20.5t21 48.5q0 26 -21 47z" glyph-name="Ecircumflex" horiz-adv-x="476" unicode="Ê"/><glyph d="M650 -229h-5q-91 0 -153 62.5t-62 153.5v237q-57 -30 -121 -30q-30 0 -48.5 19t-18.5 49t18.5 48.5t48.5 18.5q50 0 85.5 35.5t35.5 85.5t-35.5 85t-85.5 35t-85 -35t-35 -85v-392q0 -30 -19 -48.5t-49 -18.5t-48.5 18.5t-18.5 48.5v392q0 108 73.5 181.5t181.5 73.5 t182 -73.5t74 -181.5v-463q0 -34 23 -57.5t57 -23.5h5q30 0 48.5 -19t18.5 -49q0 -29 -19 -48t-48 -19zM261 979q21 51 76 51q17 0 32 -6q51 -21 51 -77q0 -16 -6 -31l-47 -114q-21 -51 -77 -51q-15 0 -31 7q-51 22 -51 76q0 18 6 32z" glyph-name="Aacute" unicode="Á"/><glyph d="M412 -11q-150 0 -254 104t-104 254t104 254t254 104q30 0 49 -18.5t19 -48.5t-19 -49t-49 -19q-72 0 -130 -41.5t-81 -109.5h211q30 0 49 -18.5t19 -48.5t-19 -49t-49 -19h-214q21 -71 80.5 -115.5t133.5 -44.5q30 0 49 -19t19 -49t-19 -48.5t-49 -18.5zM217 765 q35 0 59 24t24 59q0 34 -24.5 58t-58.5 24t-58.5 -24t-24.5 -58q0 -35 24 -59t59 -24zM409 765q35 0 58.5 24t23.5 59q0 34 -24 58t-58 24q-35 0 -59 -23.5t-24 -58.5t24 -59t59 -24z" glyph-name="Edieresis" horiz-adv-x="476" unicode="Ë"/><glyph d="M412 -11q-150 0 -254 104t-104 254t104 254t254 104q30 0 49 -18.5t19 -48.5t-19 -49t-49 -19q-72 0 -130 -41.5t-81 -109.5h211q30 0 49 -18.5t19 -48.5t-19 -49t-49 -19h-214q21 -71 80.5 -115.5t133.5 -44.5q30 0 49 -19t19 -49t-19 -48.5t-49 -18.5zM327 979 q-21 51 -77 51q-16 0 -31 -6q-51 -21 -51 -77q0 -16 6 -31l47 -114q21 -51 76 -51q16 0 32 7q51 22 51 76q0 18 -6 32z" glyph-name="Egrave" horiz-adv-x="476" unicode="È"/><glyph d="M189 638v-580q0 -30 -19 -48.5t-49 -18.5t-48.5 18.5t-18.5 48.5v580q0 30 18.5 48.5t48.5 18.5t49 -18.5t19 -48.5zM61 979q21 51 76 51q17 0 32 -6q51 -21 51 -77q0 -16 -6 -31l-47 -114q-21 -51 -77 -51q-15 0 -31 7q-51 22 -51 76q0 18 6 32z" glyph-name="Iacute" horiz-adv-x="189" unicode="Í"/><glyph d="M189 638v-580q0 -30 -19 -48.5t-49 -18.5t-48.5 18.5t-18.5 48.5v580q0 30 18.5 48.5t48.5 18.5t49 -18.5t19 -48.5zM268 871q-76 75 -90 88q-33 30 -56 30q-21 0 -55 -30q-17 -15 -90 -88q-21 -21 -21 -47q0 -28 20.5 -48.5t48.5 -20.5q26 0 47 21l50 49l50 -49 q21 -21 47 -21q28 0 49 20.5t21 48.5q0 26 -21 47z" glyph-name="Icircumflex" horiz-adv-x="189" unicode="Î"/><glyph d="M189 638v-580q0 -30 -19 -48.5t-49 -18.5t-48.5 18.5t-18.5 48.5v580q0 30 18.5 48.5t48.5 18.5t49 -18.5t19 -48.5zM17 765q35 0 59 24t24 59q0 34 -24.5 58t-58.5 24t-58.5 -24t-24.5 -58q0 -35 24 -59t59 -24zM209 765q35 0 58.5 24t23.5 59q0 34 -24 58t-58 24 q-35 0 -59 -23.5t-24 -58.5t24 -59t59 -24z" glyph-name="Idieresis" horiz-adv-x="189" unicode="Ï"/><glyph d="M189 638v-580q0 -30 -19 -48.5t-49 -18.5t-48.5 18.5t-18.5 48.5v580q0 30 18.5 48.5t48.5 18.5t49 -18.5t19 -48.5zM157 979q-21 51 -77 51q-16 0 -31 -6q-51 -21 -51 -77q0 -16 6 -31l47 -114q21 -51 76 -51q16 0 32 7q51 22 51 76q0 18 -6 32z" glyph-name="Igrave" horiz-adv-x="189" unicode="Ì"/><glyph d="M412 705q150 0 254 -104t104 -254t-104 -254t-254 -104t-254 104t-104 254t104 254t254 104zM412 570q-95 0 -159 -64t-64 -159q0 -94 64.5 -158.5t158.5 -64.5t158.5 64.5t64.5 158.5t-64.5 158.5t-158.5 64.5zM361 979q21 51 76 51q17 0 32 -6q51 -21 51 -77 q0 -16 -6 -31l-47 -114q-21 -51 -77 -51q-15 0 -31 7q-51 22 -51 76q0 18 6 32z" glyph-name="Oacute" horiz-adv-x="769" unicode="Ó"/><glyph d="M412 705q150 0 254 -104t104 -254t-104 -254t-254 -104t-254 104t-104 254t104 254t254 104zM412 570q-95 0 -159 -64t-64 -159q0 -94 64.5 -158.5t158.5 -64.5t158.5 64.5t64.5 158.5t-64.5 158.5t-158.5 64.5zM568 871q-76 75 -90 88q-33 30 -56 30q-21 0 -55 -30 q-17 -15 -90 -88q-21 -21 -21 -47q0 -28 20.5 -48.5t48.5 -20.5q26 0 47 21l50 49l50 -49q21 -21 47 -21q28 0 49 20.5t21 48.5q0 26 -21 47z" glyph-name="Ocircumflex" horiz-adv-x="769" unicode="Ô"/><glyph d="M412 705q150 0 254 -104t104 -254t-104 -254t-254 -104t-254 104t-104 254t104 254t254 104zM412 570q-95 0 -159 -64t-64 -159q0 -94 64.5 -158.5t158.5 -64.5t158.5 64.5t64.5 158.5t-64.5 158.5t-158.5 64.5zM427 979q-21 51 -77 51q-16 0 -31 -6q-51 -21 -51 -77 q0 -16 6 -31l47 -114q21 -51 76 -51q16 0 32 7q51 22 51 76q0 18 -6 32z" glyph-name="Ograve" horiz-adv-x="769" unicode="Ò"/><glyph d="M189 638v-431q0 -34 23.5 -57.5t57.5 -23.5t57 23.5t23 57.5v432q0 29 19.5 48.5t48.5 19.5q30 0 48.5 -19t18.5 -49v-432q0 -91 -62 -153.5t-153 -62.5q-92 0 -154 62t-62 154v431q0 30 18.5 48.5t48.5 18.5t49 -18.5t19 -48.5zM251 979q21 51 76 51q17 0 32 -6 q51 -21 51 -77q0 -16 -6 -31l-47 -114q-21 -51 -77 -51q-15 0 -31 7q-51 22 -51 76q0 18 6 32z" glyph-name="Uacute" horiz-adv-x="486" unicode="Ú"/><glyph d="M189 638v-431q0 -34 23.5 -57.5t57.5 -23.5t57 23.5t23 57.5v432q0 29 19.5 48.5t48.5 19.5q30 0 48.5 -19t18.5 -49v-432q0 -91 -62 -153.5t-153 -62.5q-92 0 -154 62t-62 154v431q0 30 18.5 48.5t48.5 18.5t49 -18.5t19 -48.5zM418 871q-76 75 -90 88q-33 30 -56 30 q-21 0 -55 -30q-17 -15 -90 -88q-21 -21 -21 -47q0 -28 20.5 -48.5t48.5 -20.5q26 0 47 21l50 49l50 -49q21 -21 47 -21q28 0 49 20.5t21 48.5q0 26 -21 47z" glyph-name="Ucircumflex" horiz-adv-x="486" unicode="Û"/><glyph d="M189 638v-431q0 -34 23.5 -57.5t57.5 -23.5t57 23.5t23 57.5v432q0 29 19.5 48.5t48.5 19.5q30 0 48.5 -19t18.5 -49v-432q0 -91 -62 -153.5t-153 -62.5q-92 0 -154 62t-62 154v431q0 30 18.5 48.5t48.5 18.5t49 -18.5t19 -48.5zM327 979q-21 51 -77 51q-16 0 -31 -6 q-51 -21 -51 -77q0 -16 6 -31l47 -114q21 -51 76 -51q16 0 32 7q51 22 51 76q0 18 -6 32z" glyph-name="Ugrave" horiz-adv-x="486" unicode="Ù"/></font>
</defs>
</svg>
